<svg xmlns="http://www.w3.org/2000/svg" width="215" height="215" viewBox="0 0 215 215">
<g>
<path d="M 126.00 195.97 C116.57,198.44 112.70,198.96 104.50,198.86 C91.89,198.69 91.42,198.60 80.65,193.96 C49.24,180.41 29.25,158.13 22.08,128.68 C18.91,115.69 19.07,98.80 22.47,85.70 C30.13,56.22 51.24,33.92 80.87,23.99 C85.90,22.30 92.60,20.58 95.76,20.16 C100.06,19.59 101.40,19.04 101.10,17.95 C99.81,13.25 100.00,11.36 101.97,9.25 C104.11,6.97 110.11,6.15 112.69,7.79 C114.74,9.09 116.03,13.80 115.04,16.40 C113.91,19.37 114.50,20.00 118.42,20.00 C120.11,20.00 125.65,21.12 130.72,22.48 C163.57,31.28 187.50,56.75 194.43,90.30 C196.23,99.05 196.48,114.91 194.95,123.57 C190.75,147.29 176.43,169.20 156.18,182.90 C147.04,189.08 139.04,192.54 126.00,195.97 ZM 152.61 178.58 C149.08,182.11 146.54,185.00 146.96,185.00 C147.39,185.00 151.06,182.82 155.12,180.15 C176.33,166.20 190.55,141.62 193.51,113.80 C195.64,93.77 186.08,66.38 171.23,49.96 C158.13,35.49 137.66,25.00 117.85,22.62 L 113.20 22.07 L 113.73 26.06 C114.13,29.03 113.81,30.55 112.48,32.02 C107.96,37.02 99.74,31.51 102.16,25.10 L 103.06 22.70 L 96.28 23.29 C83.51,24.40 68.98,30.50 55.70,40.32 C38.00,53.41 26.20,74.06 22.91,97.72 C18.90,126.56 32.28,158.22 56.31,176.73 C59.51,179.20 62.33,181.00 62.59,180.75 C62.84,180.49 61.53,178.01 59.66,175.24 C57.80,172.48 55.45,167.93 54.45,165.13 C53.12,161.44 51.20,158.83 47.39,155.54 C36.66,146.28 33.54,132.24 39.36,119.51 C41.86,114.07 41.98,113.22 40.96,108.31 C38.03,94.21 47.70,79.05 61.92,75.44 C66.40,74.30 66.43,74.27 68.05,67.90 C70.56,58.00 73.43,52.48 78.92,46.99 C85.70,40.20 91.36,37.83 102.17,37.24 C114.43,36.57 120.81,38.68 127.49,45.64 C143.86,62.69 144.82,64.26 144.88,74.00 C144.90,77.03 144.28,81.28 143.50,83.46 C142.22,87.05 142.26,87.69 143.98,90.46 C146.90,95.18 151.02,98.59 156.73,101.01 C168.27,105.90 172.29,120.57 165.07,131.43 C163.48,133.82 163.34,134.74 164.29,136.43 C164.96,137.62 165.47,142.76 165.48,148.50 C165.50,157.72 165.25,159.03 162.27,165.33 C160.10,169.91 156.93,174.26 152.61,178.58 ZM 99.23 178.94 C109.92,181.05 124.48,179.43 134.79,174.99 C139.18,173.11 139.89,172.38 140.49,169.21 C140.86,167.22 142.23,164.33 143.52,162.79 C144.82,161.25 146.89,158.20 148.12,156.00 C150.92,151.02 153.78,150.65 154.68,155.15 C155.26,158.03 155.42,158.15 156.62,156.50 C157.35,155.51 158.69,152.41 159.60,149.60 C160.52,146.80 161.62,144.05 162.04,143.50 C163.03,142.23 162.07,137.00 160.85,137.00 C160.34,137.00 158.86,137.70 157.54,138.56 C154.19,140.76 145.10,141.52 140.48,139.99 C138.38,139.30 134.73,136.95 132.36,134.76 C128.31,131.03 127.85,130.86 124.85,131.90 C110.63,136.86 95.17,156.16 93.41,171.15 C92.67,177.42 92.87,177.69 99.23,178.94 ZM 141.34 137.38 C146.10,139.08 149.68,138.68 155.82,135.79 C168.83,129.66 169.31,110.64 156.62,104.11 C152.85,102.17 151.31,101.86 149.19,102.60 C146.21,103.65 145.22,106.35 147.02,108.53 C147.92,109.61 148.69,109.70 150.19,108.90 C152.80,107.50 153.81,108.62 151.78,110.65 C148.04,114.38 141.00,108.43 143.81,103.93 C145.25,101.63 144.94,101.58 140.64,103.38 C136.05,105.30 133.31,109.17 130.87,117.19 C129.06,123.17 128.96,124.48 130.09,127.21 C131.88,131.54 136.39,135.61 141.34,137.38 ZM 104.60 109.88 C107.17,112.15 109.84,114.00 110.52,114.00 C111.20,114.00 112.88,112.54 114.24,110.75 L 116.72 107.50 L 114.61 105.85 C112.06,103.86 113.29,102.07 116.03,103.79 C118.73,105.47 119.69,105.31 120.27,103.08 C120.59,101.86 121.83,101.03 123.64,100.83 C126.43,100.51 126.49,100.38 126.16,95.26 C125.86,90.71 126.32,89.12 129.58,83.30 C132.29,78.44 133.33,75.39 133.33,72.29 C133.33,69.93 133.07,67.74 132.76,67.42 C132.44,67.11 130.25,68.95 127.89,71.51 C123.14,76.66 118.06,79.62 110.50,81.64 C103.19,83.59 99.28,83.39 98.00,81.00 C96.62,78.42 92.40,78.38 91.04,80.93 C89.42,83.96 89.80,85.91 92.48,88.39 C93.92,89.73 95.22,92.32 95.58,94.58 C96.51,100.41 99.38,105.29 104.60,109.88 ZM 109.97 134.30 L 110.99 137.11 L 114.30 134.58 C116.12,133.20 119.72,131.13 122.31,129.98 C126.83,127.98 127.00,127.75 127.00,123.69 C127.00,119.26 129.78,110.51 132.50,106.35 C134.40,103.47 139.29,100.32 143.21,99.45 C146.62,98.70 146.63,98.52 143.46,94.36 C142.06,92.53 139.64,88.21 138.07,84.76 C135.69,79.51 135.10,78.82 134.44,80.50 C134.00,81.60 132.60,83.89 131.32,85.59 C129.40,88.16 129.00,89.91 129.00,95.87 L 129.00 103.05 L 125.96 103.66 C124.29,103.99 122.47,105.12 121.91,106.18 C121.34,107.23 118.86,110.20 116.39,112.78 L 111.90 117.46 L 106.37 114.48 C100.97,111.57 100.81,111.54 99.42,113.44 C97.18,116.51 97.72,118.44 101.75,121.71 C105.37,124.64 107.82,128.40 109.97,134.30 ZM 96.59 142.43 C102.05,144.43 103.35,144.33 105.82,141.69 C107.88,139.50 107.92,139.12 106.62,134.13 C105.42,129.49 100.93,123.00 98.93,123.00 C98.55,123.00 97.96,124.01 97.62,125.25 C97.10,127.13 96.84,127.25 96.02,126.00 C94.39,123.53 94.87,116.68 96.95,112.59 L 98.91 108.76 L 96.45 105.15 C95.10,103.16 94.00,100.97 94.00,100.27 C94.00,98.31 92.21,98.77 91.53,100.91 C90.70,103.52 82.81,110.65 78.44,112.73 C75.09,114.33 74.90,114.67 75.51,117.91 C77.44,128.19 86.51,138.73 96.59,142.43 ZM 101.31 189.21 C106.62,194.94 108.97,196.82 110.47,196.51 C111.59,196.28 114.82,195.64 117.65,195.08 C128.66,192.91 143.91,184.08 152.50,174.89 C157.77,169.26 162.00,160.84 162.65,154.68 L 163.09 150.50 L 160.08 156.15 C157.25,161.46 152.95,166.00 150.75,166.00 C149.74,166.00 150.15,161.82 151.47,158.75 C151.88,157.79 151.83,157.00 151.36,157.01 C149.81,157.02 143.00,168.60 143.00,171.21 C143.00,172.77 142.12,174.34 140.75,175.23 C132.49,180.59 113.81,183.90 102.09,182.08 C98.04,181.45 94.60,181.07 94.45,181.22 C94.30,181.37 97.38,184.97 101.31,189.21 ZM 86.77 172.25 C89.14,174.95 89.77,174.42 90.95,168.75 C92.14,163.04 95.81,154.47 99.00,150.01 L 101.00 147.19 L 94.25 144.04 C83.63,139.09 75.09,129.22 73.06,119.57 C72.72,117.97 72.01,116.50 71.47,116.32 C69.88,115.79 60.56,122.35 60.19,124.26 C59.94,125.57 60.52,126.00 62.54,126.00 C64.33,126.00 66.50,127.27 68.96,129.75 C72.26,133.07 73.00,134.81 75.46,145.00 C78.06,155.77 83.25,168.26 86.77,172.25 ZM 76.50 171.07 C79.80,172.57 82.85,173.59 83.27,173.33 C83.69,173.07 83.21,171.65 82.21,170.18 C78.78,165.16 74.94,155.12 72.93,145.94 C69.91,132.10 67.75,129.00 61.14,129.00 C57.33,129.00 55.35,131.00 53.91,136.29 C52.50,141.49 53.31,155.46 55.16,157.70 C57.15,160.12 69.65,167.94 76.50,171.07 ZM 80.01 72.75 C79.99,74.76 90.88,74.28 97.59,71.97 C107.69,68.50 115.81,62.08 119.99,54.28 C121.86,50.78 121.88,50.51 120.24,49.53 C119.28,48.97 115.12,48.53 111.00,48.56 C101.87,48.62 95.50,51.17 89.13,57.30 C85.11,61.16 80.03,69.77 80.01,72.75 ZM 92.92 195.48 C99.44,197.06 102.70,197.30 103.35,196.24 C104.19,194.88 87.23,178.10 84.29,177.39 C80.55,176.48 68.53,170.44 63.22,166.80 C60.86,165.18 58.49,164.00 57.94,164.19 C55.97,164.84 62.66,175.63 69.14,182.24 C76.19,189.43 82.52,192.95 92.92,195.48 ZM 70.37 70.10 C69.75,73.95 69.79,74.00 72.92,74.00 C75.66,74.00 76.32,73.47 77.65,70.25 C80.88,62.41 82.12,60.35 86.19,56.16 C88.50,53.78 92.66,50.64 95.44,49.17 C100.05,46.73 101.49,46.50 111.75,46.50 C118.78,46.50 122.89,46.12 122.71,45.50 C122.11,43.50 113.33,40.00 107.28,39.37 C102.28,38.85 99.67,39.18 93.79,41.05 C87.72,43.00 85.57,44.31 80.96,48.94 C75.28,54.65 71.70,61.80 70.37,70.10 ZM 99.27 77.82 C100.46,79.02 102.61,80.00 104.04,80.00 C108.57,80.00 116.65,77.09 121.61,73.67 C129.87,67.98 133.76,57.05 128.78,53.56 C125.49,51.25 124.18,51.63 122.64,55.32 C120.48,60.48 111.41,68.71 103.86,72.36 L 97.09 75.64 ZM 61.00 109.44 L 61.00 118.83 L 66.36 115.66 C71.48,112.64 71.77,112.25 72.78,106.86 C74.33,98.59 80.02,87.23 85.35,81.75 L 89.97 77.00 L 83.98 77.00 C79.87,77.00 78.00,77.39 77.99,78.25 C77.98,78.94 76.83,81.97 75.43,85.00 C72.64,91.01 68.05,96.36 63.75,98.61 C61.05,100.03 61.00,100.21 61.00,109.44 ZM 43.61 108.42 C43.94,109.29 44.44,110.00 44.72,110.00 C44.99,110.00 47.68,107.75 50.69,105.00 C53.70,102.25 56.52,100.00 56.97,100.00 C57.41,100.00 58.09,98.32 58.48,96.27 C58.86,94.22 60.49,89.73 62.09,86.31 C63.69,82.89 65.00,79.61 65.00,79.04 C65.00,75.66 54.31,80.65 49.48,86.29 C44.50,92.11 41.58,103.13 43.61,108.42 ZM 46.12 150.49 C47.82,152.42 49.53,154.00 49.92,154.00 C50.32,154.00 50.66,149.81 50.68,144.69 C50.71,138.04 51.22,134.35 52.44,131.77 L 54.15 128.16 L 48.84 123.04 C42.67,117.09 41.89,117.42 39.95,126.75 C38.01,136.08 39.92,143.43 46.12,150.49 ZM 75.53 106.85 C75.14,109.13 75.15,111.00 75.54,111.00 C77.33,111.00 83.29,106.48 86.86,102.43 C91.17,97.52 92.53,93.31 90.54,91.00 C89.83,90.18 88.59,88.20 87.78,86.62 L 86.31 83.74 L 82.75 89.62 C78.36,96.90 76.43,101.49 75.53,106.85 ZM 50.13 120.52 C54.62,125.39 55.01,125.59 56.80,123.80 C58.48,122.12 58.46,104.00 56.78,104.00 C55.14,104.00 46.00,113.09 46.00,114.73 C46.00,115.46 47.86,118.06 50.13,120.52 ZM 62.00 94.67 C62.00,96.86 63.39,96.21 67.19,92.25 C70.24,89.08 76.00,79.41 76.00,77.47 C76.00,77.15 74.40,77.02 72.44,77.19 C69.02,77.49 68.73,77.82 65.44,85.42 C63.55,89.77 62.00,93.93 62.00,94.67 ZM 138.67 78.40 C140.06,82.68 140.39,83.06 141.33,81.40 C143.26,77.96 142.68,69.86 140.12,64.67 C137.94,60.24 135.63,58.03 134.44,59.23 C133.86,59.80 136.47,71.59 138.67,78.40 ZM 104.66 18.30 C105.57,20.06 106.51,20.94 106.74,20.25 C106.98,19.56 108.04,19.00 109.10,19.00 C111.32,19.00 113.57,14.92 112.66,12.56 C112.33,11.69 110.92,10.47 109.53,9.83 C107.44,8.88 106.67,8.99 105.00,10.50 C102.57,12.70 102.50,14.14 104.66,18.30 ZM 105.38 29.56 C106.22,31.73 109.77,31.29 111.07,28.86 C112.13,26.89 112.02,26.78 109.61,27.38 C107.70,27.86 107.00,27.65 107.00,26.60 C107.00,25.81 107.56,24.91 108.25,24.60 C108.94,24.29 108.61,24.15 107.51,24.28 C105.45,24.53 104.43,27.06 105.38,29.56 ZM 144.00 131.00 C144.00,131.55 142.99,131.98 141.75,131.95 C139.31,131.89 135.00,129.29 135.00,127.88 C135.00,126.46 137.65,126.87 139.00,128.50 C139.68,129.32 141.09,130.00 142.12,130.00 C143.16,130.00 144.00,130.45 144.00,131.00 ZM 154.00 125.06 C154.00,127.61 147.67,126.23 147.15,123.56 C146.87,122.10 147.19,121.87 148.65,122.47 C149.67,122.89 151.29,123.45 152.25,123.73 C153.21,124.01 154.00,124.60 154.00,125.06 ZM 123.00 90.19 C123.00,90.63 122.15,91.00 121.11,91.00 C118.93,91.00 114.20,87.48 115.13,86.54 C115.90,85.77 123.00,89.05 123.00,90.19 ZM 141.00 119.74 C141.00,120.43 140.37,121.00 139.61,121.00 C137.72,121.00 133.33,117.34 134.19,116.48 C135.19,115.47 141.00,118.26 141.00,119.74 Z" fill="rgb(33,49,64)"/>
<path d="M 131.35 162.07 C128.24,165.33 124.98,167.99 124.10,167.98 C122.15,167.95 113.57,160.34 112.08,157.32 C110.42,153.96 110.79,150.21 113.00,148.00 C115.21,145.79 119.95,145.35 121.77,147.17 C122.67,148.07 123.55,148.07 125.52,147.17 C131.53,144.44 137.00,147.25 137.00,153.07 C137.00,155.45 135.71,157.50 131.35,162.07 Z" fill="rgb(225,129,150)"/>
<path d="M 0.00 107.50 L 0.00 0.00 L 107.50 0.00 L 215.00 0.00 L 215.00 107.50 L 215.00 215.00 L 107.50 215.00 L 0.00 215.00 L 0.00 107.50 ZM 126.00 195.97 C139.04,192.54 147.04,189.08 156.18,182.90 C176.43,169.20 190.75,147.29 194.95,123.57 C196.48,114.91 196.23,99.05 194.43,90.30 C187.50,56.75 163.57,31.28 130.72,22.48 C125.65,21.12 120.11,20.00 118.42,20.00 C114.50,20.00 113.91,19.37 115.04,16.40 C116.03,13.80 114.74,9.09 112.69,7.79 C110.11,6.15 104.11,6.97 101.97,9.25 C100.00,11.36 99.81,13.25 101.10,17.95 C101.40,19.04 100.06,19.59 95.76,20.16 C92.60,20.58 85.90,22.30 80.87,23.99 C51.24,33.92 30.13,56.22 22.47,85.70 C19.07,98.80 18.91,115.69 22.08,128.68 C29.25,158.13 49.24,180.41 80.65,193.96 C91.42,198.60 91.89,198.69 104.50,198.86 C112.70,198.96 116.57,198.44 126.00,195.97 ZM 92.92 195.48 C82.52,192.95 76.19,189.43 69.14,182.24 C62.66,175.63 55.97,164.84 57.94,164.19 C58.49,164.00 60.86,165.18 63.22,166.80 C68.53,170.44 80.55,176.48 84.29,177.39 C87.23,178.10 104.19,194.88 103.35,196.24 C102.70,197.30 99.44,197.06 92.92,195.48 ZM 101.31 189.21 C97.38,184.97 94.30,181.37 94.45,181.22 C94.60,181.07 98.04,181.45 102.09,182.08 C113.81,183.90 132.49,180.59 140.75,175.23 C142.12,174.34 143.00,172.77 143.00,171.21 C143.00,168.60 149.81,157.02 151.36,157.01 C151.83,157.00 151.88,157.79 151.47,158.75 C150.15,161.82 149.74,166.00 150.75,166.00 C152.95,166.00 157.25,161.46 160.08,156.15 L 163.09 150.50 L 162.65 154.68 C162.00,160.84 157.77,169.26 152.50,174.89 C143.91,184.08 128.66,192.91 117.65,195.08 C114.82,195.64 111.59,196.28 110.47,196.51 C108.97,196.82 106.62,194.94 101.31,189.21 ZM 152.61 178.58 C156.93,174.26 160.10,169.91 162.27,165.33 C165.25,159.03 165.50,157.72 165.48,148.50 C165.47,142.76 164.96,137.62 164.29,136.43 C163.34,134.74 163.48,133.82 165.07,131.43 C172.29,120.57 168.27,105.90 156.73,101.01 C151.02,98.59 146.90,95.18 143.98,90.46 C142.26,87.69 142.22,87.05 143.50,83.46 C144.28,81.28 144.90,77.03 144.88,74.00 C144.82,64.26 143.86,62.69 127.49,45.64 C120.81,38.68 114.43,36.57 102.17,37.24 C91.36,37.83 85.70,40.20 78.92,46.99 C73.43,52.48 70.56,58.00 68.05,67.90 C66.43,74.27 66.40,74.30 61.92,75.44 C47.70,79.05 38.03,94.21 40.96,108.31 C41.98,113.22 41.86,114.07 39.36,119.51 C33.54,132.24 36.66,146.28 47.39,155.54 C51.20,158.83 53.12,161.44 54.45,165.13 C55.45,167.93 57.80,172.48 59.66,175.24 C61.53,178.01 62.84,180.49 62.59,180.75 C62.33,181.00 59.51,179.20 56.31,176.73 C32.28,158.22 18.90,126.56 22.91,97.72 C26.20,74.06 38.00,53.41 55.70,40.32 C68.98,30.50 83.51,24.40 96.28,23.29 L 103.06 22.70 L 102.16 25.10 C99.74,31.51 107.96,37.02 112.48,32.02 C113.81,30.55 114.13,29.03 113.73,26.06 L 113.20 22.07 L 117.85 22.62 C137.66,25.00 158.13,35.49 171.23,49.96 C186.08,66.38 195.64,93.77 193.51,113.80 C190.55,141.62 176.33,166.20 155.12,180.15 C151.06,182.82 147.39,185.00 146.96,185.00 C146.54,185.00 149.08,182.11 152.61,178.58 ZM 99.23 178.94 C92.87,177.69 92.67,177.42 93.41,171.15 C95.17,156.16 110.63,136.86 124.85,131.90 C127.85,130.86 128.31,131.03 132.36,134.76 C134.73,136.95 138.38,139.30 140.48,139.99 C145.10,141.52 154.19,140.76 157.54,138.56 C158.86,137.70 160.34,137.00 160.85,137.00 C162.07,137.00 163.03,142.23 162.04,143.50 C161.62,144.05 160.52,146.80 159.60,149.60 C158.69,152.41 157.35,155.51 156.62,156.50 C155.42,158.15 155.26,158.03 154.68,155.15 C153.78,150.65 150.92,151.02 148.12,156.00 C146.89,158.20 144.82,161.25 143.52,162.79 C142.23,164.33 140.86,167.22 140.49,169.21 C139.89,172.38 139.18,173.11 134.79,174.99 C124.48,179.43 109.92,181.05 99.23,178.94 ZM 131.35 162.07 C135.71,157.50 137.00,155.45 137.00,153.07 C137.00,147.25 131.53,144.44 125.52,147.17 C123.55,148.07 122.67,148.07 121.77,147.17 C119.95,145.35 115.21,145.79 113.00,148.00 C110.79,150.21 110.42,153.96 112.08,157.32 C113.57,160.34 122.15,167.95 124.10,167.98 C124.98,167.99 128.24,165.33 131.35,162.07 ZM 76.50 171.07 C69.65,167.94 57.15,160.12 55.16,157.70 C53.31,155.46 52.50,141.49 53.91,136.29 C55.35,131.00 57.33,129.00 61.14,129.00 C67.75,129.00 69.91,132.10 72.93,145.94 C74.94,155.12 78.78,165.16 82.21,170.18 C83.21,171.65 83.69,173.07 83.27,173.33 C82.85,173.59 79.80,172.57 76.50,171.07 ZM 86.77 172.25 C83.25,168.26 78.06,155.77 75.46,145.00 C73.00,134.81 72.26,133.07 68.96,129.75 C66.50,127.27 64.33,126.00 62.54,126.00 C60.52,126.00 59.94,125.57 60.19,124.26 C60.56,122.35 69.88,115.79 71.47,116.32 C72.01,116.50 72.72,117.97 73.06,119.57 C75.09,129.22 83.63,139.09 94.25,144.04 L 101.00 147.19 L 99.00 150.01 C95.81,154.47 92.14,163.04 90.95,168.75 C89.77,174.42 89.14,174.95 86.77,172.25 ZM 46.12 150.49 C39.92,143.43 38.01,136.08 39.95,126.75 C41.89,117.42 42.67,117.09 48.84,123.04 L 54.15 128.16 L 52.44 131.77 C51.22,134.35 50.71,138.04 50.68,144.69 C50.66,149.81 50.32,154.00 49.92,154.00 C49.53,154.00 47.82,152.42 46.12,150.49 ZM 96.59 142.43 C86.51,138.73 77.44,128.19 75.51,117.91 C74.90,114.67 75.09,114.33 78.44,112.73 C82.81,110.65 90.70,103.52 91.53,100.91 C92.21,98.77 94.00,98.31 94.00,100.27 C94.00,100.97 95.10,103.16 96.45,105.15 L 98.91 108.76 L 96.95 112.59 C94.87,116.68 94.39,123.53 96.02,126.00 C96.84,127.25 97.10,127.13 97.62,125.25 C97.96,124.01 98.55,123.00 98.93,123.00 C100.93,123.00 105.42,129.49 106.62,134.13 C107.92,139.12 107.88,139.50 105.82,141.69 C103.35,144.33 102.05,144.43 96.59,142.43 ZM 141.34 137.38 C136.39,135.61 131.88,131.54 130.09,127.21 C128.96,124.48 129.06,123.17 130.87,117.19 C133.31,109.17 136.05,105.30 140.64,103.38 C144.94,101.58 145.25,101.63 143.81,103.93 C141.00,108.43 148.04,114.38 151.78,110.65 C153.81,108.62 152.80,107.50 150.19,108.90 C148.69,109.70 147.92,109.61 147.02,108.53 C145.22,106.35 146.21,103.65 149.19,102.60 C151.31,101.86 152.85,102.17 156.62,104.11 C169.31,110.64 168.83,129.66 155.82,135.79 C149.68,138.68 146.10,139.08 141.34,137.38 ZM 144.00 131.00 C144.00,130.45 143.16,130.00 142.12,130.00 C141.09,130.00 139.68,129.32 139.00,128.50 C137.65,126.87 135.00,126.46 135.00,127.88 C135.00,129.29 139.31,131.89 141.75,131.95 C142.99,131.98 144.00,131.55 144.00,131.00 ZM 154.00 125.06 C154.00,124.60 153.21,124.01 152.25,123.73 C151.29,123.45 149.67,122.89 148.65,122.47 C147.19,121.87 146.87,122.10 147.15,123.56 C147.67,126.23 154.00,127.61 154.00,125.06 ZM 141.00 119.74 C141.00,118.26 135.19,115.47 134.19,116.48 C133.33,117.34 137.72,121.00 139.61,121.00 C140.37,121.00 141.00,120.43 141.00,119.74 ZM 109.97 134.30 C107.82,128.40 105.37,124.64 101.75,121.71 C97.72,118.44 97.18,116.51 99.42,113.44 C100.81,111.54 100.97,111.57 106.37,114.48 L 111.90 117.46 L 116.39 112.78 C118.86,110.20 121.34,107.23 121.91,106.18 C122.47,105.12 124.29,103.99 125.96,103.66 L 129.00 103.05 L 129.00 95.87 C129.00,89.91 129.40,88.16 131.32,85.59 C132.60,83.89 134.00,81.60 134.44,80.50 C135.10,78.82 135.69,79.51 138.07,84.76 C139.64,88.21 142.06,92.53 143.46,94.36 C146.63,98.52 146.62,98.70 143.21,99.45 C139.29,100.32 134.40,103.47 132.50,106.35 C129.78,110.51 127.00,119.26 127.00,123.69 C127.00,127.75 126.83,127.98 122.31,129.98 C119.72,131.13 116.12,133.20 114.30,134.58 L 110.99 137.11 L 109.97 134.30 ZM 50.13 120.52 C47.86,118.06 46.00,115.46 46.00,114.73 C46.00,113.09 55.14,104.00 56.78,104.00 C58.46,104.00 58.48,122.12 56.80,123.80 C55.01,125.59 54.62,125.39 50.13,120.52 ZM 61.00 109.44 C61.00,100.21 61.05,100.03 63.75,98.61 C68.05,96.36 72.64,91.01 75.43,85.00 C76.83,81.97 77.98,78.94 77.99,78.25 C78.00,77.39 79.87,77.00 83.98,77.00 L 89.97 77.00 L 85.35 81.75 C80.02,87.23 74.33,98.59 72.78,106.86 C71.77,112.25 71.48,112.64 66.36,115.66 L 61.00 118.83 L 61.00 109.44 ZM 104.60 109.88 C99.38,105.29 96.51,100.41 95.58,94.58 C95.22,92.32 93.92,89.73 92.48,88.39 C89.80,85.91 89.42,83.96 91.04,80.93 C92.40,78.38 96.62,78.42 98.00,81.00 C99.28,83.39 103.19,83.59 110.50,81.64 C118.06,79.62 123.14,76.66 127.89,71.51 C130.25,68.95 132.44,67.11 132.76,67.42 C133.07,67.74 133.33,69.93 133.33,72.29 C133.33,75.39 132.29,78.44 129.58,83.30 C126.32,89.12 125.86,90.71 126.16,95.26 C126.49,100.38 126.43,100.51 123.64,100.83 C121.83,101.03 120.59,101.86 120.27,103.08 C119.69,105.31 118.73,105.47 116.03,103.79 C113.29,102.07 112.06,103.86 114.61,105.85 L 116.72 107.50 L 114.24 110.75 C112.88,112.54 111.20,114.00 110.52,114.00 C109.84,114.00 107.17,112.15 104.60,109.88 ZM 123.00 90.19 C123.00,89.05 115.90,85.77 115.13,86.54 C114.20,87.48 118.93,91.00 121.11,91.00 C122.15,91.00 123.00,90.63 123.00,90.19 ZM 75.53 106.85 C76.43,101.49 78.36,96.90 82.75,89.62 L 86.31 83.74 L 87.78 86.62 C88.59,88.20 89.83,90.18 90.54,91.00 C92.53,93.31 91.17,97.52 86.86,102.43 C83.29,106.48 77.33,111.00 75.54,111.00 C75.15,111.00 75.14,109.13 75.53,106.85 ZM 43.61 108.42 C41.58,103.13 44.50,92.11 49.48,86.29 C54.31,80.65 65.00,75.66 65.00,79.04 C65.00,79.61 63.69,82.89 62.09,86.31 C60.49,89.73 58.86,94.22 58.48,96.27 C58.09,98.32 57.41,100.00 56.97,100.00 C56.52,100.00 53.70,102.25 50.69,105.00 C47.68,107.75 44.99,110.00 44.72,110.00 C44.44,110.00 43.94,109.29 43.61,108.42 ZM 62.00 94.67 C62.00,93.93 63.55,89.77 65.44,85.42 C68.73,77.82 69.02,77.49 72.44,77.19 C74.40,77.02 76.00,77.15 76.00,77.47 C76.00,79.41 70.24,89.08 67.19,92.25 C63.39,96.21 62.00,96.86 62.00,94.67 ZM 138.67 78.40 C136.47,71.59 133.86,59.80 134.44,59.23 C135.63,58.03 137.94,60.24 140.12,64.67 C142.68,69.86 143.26,77.96 141.33,81.40 C140.39,83.06 140.06,82.68 138.67,78.40 ZM 99.27 77.82 L 97.09 75.64 L 103.86 72.36 C111.41,68.71 120.48,60.48 122.64,55.32 C124.18,51.63 125.49,51.25 128.78,53.56 C133.76,57.05 129.87,67.98 121.61,73.67 C116.65,77.09 108.57,80.00 104.04,80.00 C102.61,80.00 100.46,79.02 99.27,77.82 ZM 70.37 70.10 C71.70,61.80 75.28,54.65 80.96,48.94 C85.57,44.31 87.72,43.00 93.79,41.05 C99.67,39.18 102.28,38.85 107.28,39.37 C113.33,40.00 122.11,43.50 122.71,45.50 C122.89,46.12 118.78,46.50 111.75,46.50 C101.49,46.50 100.05,46.73 95.44,49.17 C92.66,50.64 88.50,53.78 86.19,56.16 C82.12,60.35 80.88,62.41 77.65,70.25 C76.32,73.47 75.66,74.00 72.92,74.00 C69.79,74.00 69.75,73.95 70.37,70.10 ZM 80.01 72.75 C80.03,69.77 85.11,61.16 89.13,57.30 C95.50,51.17 101.87,48.62 111.00,48.56 C115.12,48.53 119.28,48.97 120.24,49.53 C121.88,50.51 121.86,50.78 119.99,54.28 C115.81,62.08 107.69,68.50 97.59,71.97 C90.88,74.28 79.99,74.76 80.01,72.75 ZM 105.38 29.56 C104.43,27.06 105.45,24.53 107.51,24.28 C108.61,24.15 108.94,24.29 108.25,24.60 C107.56,24.91 107.00,25.81 107.00,26.60 C107.00,27.65 107.70,27.86 109.61,27.38 C112.02,26.78 112.13,26.89 111.07,28.86 C109.77,31.29 106.22,31.73 105.38,29.56 ZM 104.66 18.30 C102.50,14.14 102.57,12.70 105.00,10.50 C106.67,8.99 107.44,8.88 109.53,9.83 C110.92,10.47 112.33,11.69 112.66,12.56 C113.57,14.92 111.32,19.00 109.10,19.00 C108.04,19.00 106.98,19.56 106.74,20.25 C106.51,20.94 105.57,20.06 104.66,18.30 Z" fill="rgb(250,252,252)"/>
</g>
</svg>