<svg xmlns="http://www.w3.org/2000/svg" width="1706" height="608" viewBox="0 0 1706 608">
<g>
<path d="M 296.79 588.94 C280.18,590.76 262.22,589.73 244.65,585.97 C225.77,581.93 211.32,575.71 192.66,563.59 C188.17,560.68 179.77,555.71 174.00,552.54 C114.00,519.66 66.83,462.38 47.13,398.50 C38.13,369.35 35.56,351.77 35.55,319.50 C35.54,283.99 39.31,261.13 50.22,230.56 C78.54,151.19 143.89,89.85 225.00,66.50 C236.45,63.20 253.30,59.94 266.33,58.49 C271.22,57.94 272.05,57.57 271.50,56.17 C265.21,40.04 268.27,27.23 280.00,20.61 C284.70,17.95 286.51,17.50 292.50,17.50 C305.11,17.51 313.49,23.90 316.09,35.49 C317.24,40.65 316.62,45.42 313.41,56.17 C313.00,57.56 313.91,57.95 318.71,58.46 C348.07,61.59 376.24,69.59 401.50,81.98 C471.17,116.14 522.12,178.10 541.43,252.13 C548.30,278.50 550.50,298.34 549.70,326.84 C548.53,368.41 539.93,402.42 521.24,439.37 C489.80,501.52 433.34,549.94 367.24,571.44 C335.14,581.88 314.58,586.99 296.79,588.94 ZM 392.04 552.33 C391.92,554.80 426.60,534.21 441.00,523.28 C458.00,510.36 478.80,488.94 492.22,470.50 C552.59,387.60 558.29,278.42 506.84,190.35 C471.32,129.55 409.88,84.60 343.13,70.58 C333.15,68.49 315.48,66.00 310.57,66.00 C308.08,66.00 307.00,72.03 308.95,75.00 C313.33,81.66 314.29,89.98 311.46,96.75 C309.49,101.46 307.37,103.77 302.95,106.02 C293.77,110.71 285.24,109.34 277.90,101.99 C270.02,94.11 269.30,85.58 275.68,75.65 C277.90,72.21 278.03,71.48 276.91,68.79 C275.67,65.79 275.64,65.78 269.58,66.42 C224.74,71.16 183.22,87.32 146.78,114.19 C90.84,155.45 55.27,215.57 45.40,285.50 C43.33,300.23 43.05,334.09 44.89,348.50 C51.28,398.62 69.32,441.24 100.54,480.00 C108.98,490.48 127.29,509.44 136.00,516.72 C142.12,521.83 155.73,531.91 159.62,534.21 C159.74,534.28 159.86,534.35 159.97,534.41 C161.37,535.24 162.25,535.76 162.45,535.56 C162.81,535.23 161.13,532.73 156.52,525.91 L 155.86 524.93 C148.79,514.45 138.88,494.92 135.94,485.65 C134.00,479.54 133.28,478.50 129.20,475.91 C126.68,474.32 121.08,469.99 116.75,466.29 C97.85,450.15 86.75,428.51 85.33,405.00 C84.30,388.18 87.62,374.46 96.51,358.74 L 101.74 349.50 L 99.99 345.00 C96.12,335.06 94.71,325.35 95.29,312.62 C96.11,294.52 100.45,281.66 110.54,267.43 C118.62,256.04 133.25,244.39 145.03,239.99 L 150.80 237.83 L 151.49 227.67 C153.28,201.63 160.51,181.21 174.60,162.35 C193.55,137.02 218.33,121.77 249.36,116.37 C263.09,113.98 286.31,114.94 299.00,118.43 C310.45,121.58 326.11,129.18 335.05,135.92 C343.91,142.60 356.24,155.68 360.05,162.43 C362.05,165.98 365.44,169.77 369.51,173.01 C380.96,182.12 389.66,192.38 394.45,202.41 C403.69,221.78 404.20,237.57 396.34,261.21 L 392.69 272.19 L 394.93 276.85 C397.71,282.65 408.66,299.12 413.39,304.63 C415.72,307.34 419.57,310.00 424.61,312.39 C434.64,317.15 446.08,328.42 450.71,338.09 C461.35,360.31 459.63,383.58 445.86,403.68 C444.29,405.98 443.00,408.56 443.00,409.41 C443.00,410.26 444.16,414.00 445.57,417.73 C454.77,441.92 452.31,471.63 438.91,498.50 C431.07,514.23 413.17,535.20 396.79,547.86 C394.20,549.86 392.07,551.88 392.04,552.33 ZM 281.23 534.93 C313.80,538.08 341.60,533.51 368.61,520.57 L 379.72 515.25 L 380.40 508.29 C381.20,500.20 383.97,493.85 392.71,480.00 C396.02,474.77 399.94,468.08 401.44,465.12 C405.20,457.70 408.12,455.00 412.38,455.00 C419.70,455.00 421.20,459.66 418.49,474.00 L 417.84 477.50 L 419.90 475.00 C423.94,470.12 429.85,456.40 431.97,447.00 C434.82,434.32 434.79,434.41 437.55,431.13 L 439.96 428.26 L 437.89 422.13 C436.75,418.76 435.52,416.18 435.16,416.41 C434.80,416.64 431.49,418.85 427.82,421.32 C406.38,435.71 378.40,436.49 356.17,423.30 C350.16,419.73 342.63,412.74 340.29,408.55 C339.32,406.82 338.81,406.74 335.35,407.78 C333.23,408.42 327.45,411.26 322.50,414.10 C287.46,434.16 260.17,472.11 253.49,510.02 C252.15,517.67 251.45,530.00 252.36,530.00 C252.56,530.00 257.28,530.93 262.85,532.06 C268.41,533.20 276.69,534.49 281.23,534.93 ZM 288.19 348.97 C298.77,354.27 300.66,354.07 304.28,347.31 C305.82,344.45 309.07,340.35 311.51,338.20 L 315.96 334.28 L 312.09 332.54 C303.65,328.73 299.56,322.38 304.02,319.99 C306.18,318.83 307.28,319.20 310.61,322.19 C311.77,323.23 315.02,324.96 317.84,326.03 L 322.95 327.97 L 324.50 322.64 C326.93,314.29 327.83,313.51 335.17,313.43 C338.65,313.39 342.09,313.28 342.81,313.18 C343.86,313.04 343.98,309.70 343.43,296.25 L 343.43 296.25 C343.00,285.62 342.80,280.81 344.17,276.51 C345.31,272.95 347.52,269.74 351.55,263.87 C361.17,249.87 363.97,241.71 363.99,227.58 C363.99,222.68 363.50,215.77 362.88,212.24 L 361.76 205.82 L 357.82 212.95 C353.15,221.42 343.46,231.98 333.84,239.12 C319.58,249.69 297.90,256.64 275.90,257.69 C261.03,258.40 258.95,257.79 255.91,251.82 C253.61,247.32 251.42,246.00 246.25,246.00 C241.92,246.00 239.04,248.12 236.33,253.28 C234.27,257.22 233.96,268.22 235.79,272.56 C237.21,275.91 241.59,279.00 244.93,279.00 C247.54,279.00 248.51,281.40 249.36,290.04 C251.90,315.58 266.87,338.31 288.19,348.97 ZM 381.99 424.08 C400.19,426.60 418.78,420.08 432.67,406.31 C439.10,399.94 444.10,391.43 447.48,381.13 C449.92,373.69 449.16,355.88 446.07,348.15 C442.97,340.39 438.06,333.21 431.90,327.45 C424.23,320.27 418.38,317.71 408.54,317.22 C401.36,316.85 400.13,317.06 397.04,319.17 C393.06,321.88 390.44,327.64 391.42,331.54 C392.97,337.73 400.04,340.95 404.56,337.53 C408.69,334.40 412.90,336.57 411.47,341.09 C410.55,343.99 404.72,347.00 400.02,347.00 C387.12,347.00 379.14,332.72 385.32,320.69 L 387.78 315.89 L 384.64 316.52 C374.84,318.49 361.56,329.02 356.65,338.71 C355.20,341.57 352.26,348.99 350.13,355.21 C348.00,361.42 345.02,369.38 343.52,372.90 C338.04,385.79 341.47,399.42 352.97,410.39 C361.01,418.06 370.36,422.47 381.99,424.08 ZM 1121.74 384.48 C1107.11,388.83 1088.58,382.95 1078.75,370.83 C1058.55,345.94 1065.97,306.92 1093.47,293.47 C1098.52,291.00 1100.92,290.49 1109.12,290.16 C1120.47,289.71 1126.65,291.32 1133.46,296.52 C1137.96,299.96 1139.00,300.01 1139.00,296.79 C1139.00,295.75 1140.10,293.80 1141.45,292.45 C1143.38,290.53 1144.94,290.00 1148.73,290.00 C1154.70,290.00 1157.61,291.93 1158.96,296.78 C1159.58,299.03 1159.99,315.21 1159.99,337.78 C1160.00,379.80 1159.84,380.91 1153.49,383.57 C1150.77,384.70 1149.04,384.83 1146.33,384.08 C1142.37,382.99 1139.00,380.38 1139.00,378.40 C1139.00,375.79 1137.07,376.09 1132.02,379.49 C1129.18,381.40 1124.55,383.65 1121.74,384.48 ZM 881.30 384.51 C864.90,388.78 846.55,383.57 834.88,371.31 C825.67,361.65 821.99,352.00 822.01,337.54 C822.03,324.09 826.23,312.94 834.69,303.90 C843.61,294.36 854.62,290.00 869.77,290.00 C886.07,290.00 898.69,296.00 907.43,307.91 C917.76,321.98 919.31,345.72 910.96,362.09 C905.73,372.32 893.98,381.21 881.30,384.51 ZM 622.33 382.57 C619.60,385.62 613.87,385.83 609.30,383.04 C604.51,380.12 603.99,375.55 607.51,367.14 C618.40,341.13 623.99,327.69 629.01,315.50 C641.95,284.04 649.99,265.66 651.61,263.88 C655.89,259.15 667.07,259.40 670.27,264.29 C671.64,266.39 678.28,281.91 693.01,317.50 C696.19,325.20 699.79,333.75 701.00,336.50 C709.45,355.66 716.00,372.53 716.00,375.10 C716.00,379.19 714.52,381.68 711.02,383.49 C707.13,385.50 703.15,385.39 699.50,383.16 C697.09,381.69 695.53,378.92 691.59,369.15 L 686.68 356.97 L 660.19 357.23 L 633.70 357.50 L 629.10 368.82 C626.57,375.05 623.52,381.23 622.33,382.57 ZM 292.97 418.34 L 294.13 423.93 L 300.31 419.13 C309.63,411.90 314.81,408.57 324.46,403.60 C329.29,401.12 333.67,398.94 334.19,398.77 C334.73,398.59 334.40,395.80 333.40,392.20 C331.22,384.38 332.25,377.64 337.36,366.27 C339.28,362.00 341.98,354.56 343.36,349.76 C346.79,337.83 351.32,329.65 358.51,322.37 C368.51,312.26 381.41,307.00 396.21,307.00 C400.49,307.00 404.00,306.73 404.00,306.39 C404.00,306.06 402.71,304.15 401.14,302.14 C391.72,290.17 380.08,267.95 374.84,251.95 C371.62,242.15 370.00,239.63 370.00,244.46 C370.00,248.62 366.11,257.08 360.56,265.00 C350.38,279.53 349.57,283.07 352.12,301.98 C354.09,316.65 350.72,322.00 339.50,322.00 L 333.27 322.00 L 330.99 328.25 C328.70,334.55 325.94,337.86 317.15,344.82 C314.85,346.65 311.84,350.35 310.47,353.05 C307.32,359.27 303.45,361.45 296.93,360.68 C290.70,359.94 281.00,355.40 273.07,349.51 L 266.63 344.73 L 264.71 347.11 C261.95,350.52 258.52,357.73 257.00,363.37 C255.84,367.62 255.87,368.35 257.21,369.10 C261.59,371.55 271.45,379.71 275.86,384.53 C284.83,394.35 290.18,404.93 292.97,418.34 ZM 200.00 230.25 C200.00,231.83 201.33,232.00 214.12,232.00 C243.98,232.00 267.27,225.60 288.24,211.64 C296.63,206.06 309.67,192.64 316.14,182.95 C322.13,173.97 329.00,160.99 329.00,158.63 C329.00,157.72 326.09,156.39 320.75,154.87 C313.64,152.84 310.28,152.51 296.50,152.51 C282.75,152.50 279.38,152.83 272.50,154.81 C263.27,157.48 249.04,163.99 240.45,169.49 C233.32,174.05 222.23,184.51 216.84,191.75 C209.29,201.91 200.00,223.13 200.00,230.25 ZM 236.58 523.49 C240.86,528.11 244.00,526.44 244.00,519.55 C244.00,513.61 246.92,499.34 250.09,489.84 C253.78,478.76 260.15,466.07 267.61,454.93 C272.97,446.92 273.46,445.01 270.19,444.99 C263.65,444.94 237.92,429.53 226.43,418.79 C210.67,404.04 197.42,380.85 194.00,362.00 C192.95,356.22 192.65,354.05 191.66,353.66 C191.08,353.43 190.26,353.81 188.92,354.43 C188.72,354.53 188.51,354.63 188.28,354.73 C178.47,359.22 166.86,367.35 160.59,374.13 C156.96,378.04 154.00,381.64 154.00,382.12 C154.00,382.60 157.30,383.00 161.34,383.00 C167.51,383.00 169.65,383.48 174.72,386.02 C190.12,393.72 198.19,409.66 204.54,445.00 C207.44,461.15 210.13,472.44 213.22,481.47 C217.53,494.05 229.86,516.25 236.58,523.49 ZM 211.50 514.12 C217.00,516.73 221.83,518.90 222.24,518.94 C222.64,518.97 221.33,516.43 219.32,513.28 C209.56,498.02 202.61,478.56 197.91,453.29 C191.84,420.64 187.33,407.70 179.06,399.18 C173.26,393.20 169.65,391.64 161.50,391.56 C148.89,391.45 143.48,396.39 139.51,411.61 C135.37,427.52 135.18,444.78 138.95,463.52 C140.03,468.87 141.04,473.35 141.20,473.47 C151.55,481.47 191.87,504.78 211.50,514.12 ZM 160.00 227.97 C160.00,234.32 160.20,235.08 161.75,234.62 C165.23,233.59 179.27,232.00 184.84,232.00 L 190.54 232.00 L 192.93 223.25 C203.05,186.27 226.89,161.59 265.00,148.68 C285.22,141.83 303.36,141.41 323.77,147.32 L 332.03 149.71 L 332.65 147.25 C332.99,145.89 332.85,144.50 332.34,144.14 C331.82,143.79 329.37,142.07 326.89,140.33 C319.08,134.85 306.56,129.10 296.35,126.32 C287.37,123.87 284.95,123.64 269.00,123.68 C253.35,123.71 250.44,124.00 241.52,126.36 C208.45,135.11 179.35,161.13 167.10,192.90 C163.23,202.93 160.00,218.90 160.00,227.97 ZM 270.88 563.23 L 288.27 581.00 L 293.00 581.00 C304.41,581.00 330.15,574.76 345.50,568.27 C369.13,558.28 388.93,545.14 406.09,528.08 C424.49,509.78 433.71,494.83 439.44,474.00 C442.27,463.71 444.20,442.00 442.28,442.00 C441.72,442.00 440.95,443.91 440.58,446.25 C437.68,464.41 423.82,488.54 413.46,493.45 C410.17,495.01 409.68,495.02 407.44,493.55 C404.86,491.86 404.34,488.88 405.91,484.74 C408.24,478.62 411.77,466.00 411.15,466.00 C410.77,466.00 408.94,468.81 407.07,472.25 C405.21,475.69 401.06,482.57 397.87,487.55 C391.27,497.82 389.22,502.89 388.43,510.90 C387.42,521.05 388.02,520.35 374.75,526.91 C351.03,538.64 327.70,543.97 299.99,543.99 C284.39,544.00 259.85,540.83 248.57,537.35 C245.44,536.38 251.60,543.52 270.88,563.23 ZM 742.40 383.61 C738.33,385.31 737.37,385.30 733.31,383.54 C732.24,383.07 731.34,382.72 730.60,382.16 C727.00,379.46 727.00,371.95 727.00,322.80 L 727.00 319.00 C727.00,269.42 727.20,261.51 728.55,258.91 C731.53,253.15 741.21,252.05 746.08,256.92 L 749.00 259.85 L 749.00 280.42 C749.00,291.74 749.37,301.00 749.83,301.00 C750.28,301.00 751.65,299.94 752.87,298.64 C754.08,297.35 757.65,294.99 760.79,293.39 C765.48,291.02 768.03,290.44 775.05,290.16 C789.81,289.57 796.75,293.01 801.99,303.50 C806.43,312.39 807.00,317.50 807.00,348.69 C807.00,380.90 806.76,382.14 800.29,383.93 C797.65,384.66 795.46,384.62 792.69,383.79 C785.68,381.69 785.56,381.16 784.99,348.55 C784.55,323.32 784.25,319.07 782.72,316.26 C779.95,311.17 776.57,309.50 769.44,309.69 C761.67,309.91 756.96,311.85 753.77,316.14 C749.37,322.07 749.00,324.84 749.00,351.93 C749.00,380.37 748.89,380.89 742.40,383.61 ZM 271.42 437.10 C278.53,439.66 279.43,439.50 282.92,435.11 C286.50,430.59 286.84,426.72 284.48,417.46 C281.60,406.12 276.39,397.24 267.06,387.75 C257.36,377.89 255.25,376.97 255.81,382.84 C256.06,385.47 255.66,387.20 254.52,388.34 C252.49,390.36 251.92,390.39 249.44,388.58 C247.71,387.31 247.51,385.92 247.55,375.83 C247.61,362.69 249.57,355.63 256.07,345.19 C258.23,341.72 260.00,338.48 260.00,337.99 C260.00,337.50 258.03,334.26 255.62,330.80 C250.06,322.78 247.61,317.91 245.48,310.58 L 243.78 304.72 L 240.47 310.92 C233.59,323.80 221.49,336.56 210.05,343.02 C206.65,344.93 202.91,347.23 201.73,348.13 L 199.59 349.75 L 202.16 360.13 C207.13,380.20 214.77,394.44 228.11,408.48 C232.09,412.67 238.31,418.34 241.93,421.06 C249.05,426.43 263.30,434.17 271.42,437.10 ZM 251.50 579.02 C261.51,580.84 276.00,581.60 276.00,580.31 C276.00,579.94 269.12,572.62 260.70,564.06 C252.29,555.50 242.42,544.72 238.76,540.11 L 232.11 531.72 L 220.55 526.94 C205.75,520.82 182.63,508.79 163.28,497.13 C162.69,496.77 162.11,496.42 161.55,496.09 C150.03,489.15 146.35,486.93 145.75,487.58 C145.46,487.88 145.85,488.82 146.43,490.20 C146.49,490.35 146.55,490.49 146.62,490.65 C153.04,506.10 164.80,525.10 174.89,536.31 C195.26,558.94 221.48,573.56 251.50,579.02 ZM 260.61 244.49 L 264.50 249.20 L 278.00 248.71 C287.24,248.37 294.03,247.55 299.50,246.09 C320.01,240.64 338.04,228.06 348.70,211.73 C354.60,202.70 357.06,195.33 357.73,184.70 L 358.28 175.90 L 353.54 171.49 C348.45,166.75 341.04,162.00 338.72,162.00 C337.93,162.00 335.04,166.43 332.18,172.03 C316.73,202.29 292.09,223.86 262.00,233.47 C257.33,234.96 252.82,236.40 252.00,236.67 C250.98,236.99 251.50,237.57 253.61,238.47 C255.32,239.19 258.47,241.90 260.61,244.49 ZM 160.00 306.29 L 160.00 362.92 L 166.45 358.04 C170.00,355.35 176.89,351.21 181.77,348.83 L 190.63 344.50 L 191.31 330.00 C192.36,307.37 195.91,293.67 205.59,274.92 C211.98,262.57 221.29,250.49 228.85,244.75 L 235.12 240.00 L 197.47 240.00 L 195.38 248.78 C191.05,266.87 180.82,285.12 167.27,298.89 ZM 125.38 463.20 C128.07,465.33 130.37,466.94 130.50,466.78 C130.63,466.63 130.15,462.45 129.43,457.50 C126.20,435.16 128.57,413.90 136.14,397.07 C137.74,393.53 138.69,390.35 138.27,389.99 C137.85,389.64 134.57,387.30 131.00,384.80 C124.05,379.94 111.50,367.34 108.43,362.15 C107.41,360.42 106.22,359.00 105.80,359.00 C104.67,359.00 100.05,368.50 97.43,376.20 C86.90,407.17 97.92,441.47 125.38,463.20 ZM 106.54 339.25 C106.91,340.21 107.28,341.00 107.37,341.00 C107.46,341.00 112.92,335.69 119.51,329.21 C126.11,322.72 136.00,314.03 141.50,309.89 L 151.50 302.36 L 151.17 274.93 C150.98,259.84 150.64,247.30 150.39,247.06 C149.64,246.30 140.76,251.02 134.37,255.56 C110.73,272.39 98.58,302.88 104.43,330.68 C105.22,334.43 106.17,338.29 106.54,339.25 ZM 1018.57 383.54 C1014.33,385.31 1013.39,385.31 1009.38,383.56 C1008.03,382.98 1006.96,382.55 1006.12,381.86 C1003.00,379.27 1003.00,372.90 1003.00,340.15 L 1003.00 337.41 C1003.00,298.76 1003.07,297.18 1005.00,294.72 C1007.49,291.56 1013.81,290.27 1018.10,292.04 C1021.14,293.30 1024.00,297.47 1024.00,300.65 C1024.00,302.00 1024.88,301.56 1027.75,298.81 C1033.81,292.99 1039.36,290.72 1048.70,290.20 C1056.77,289.76 1056.96,289.81 1059.95,292.80 C1062.42,295.26 1063.00,296.68 1063.00,300.20 C1063.00,308.94 1058.51,311.72 1047.41,309.85 C1040.90,308.76 1039.72,308.82 1036.11,310.45 C1031.58,312.49 1027.69,317.56 1026.09,323.50 C1025.46,325.83 1025.01,337.45 1025.01,351.28 C1025.00,378.43 1024.47,381.07 1018.57,383.54 ZM 948.33 382.80 C942.70,385.75 935.85,384.48 932.63,379.88 C931.19,377.83 931.00,372.90 931.00,337.71 C931.00,312.30 931.37,297.17 932.03,295.94 C933.34,293.50 938.13,291.00 941.50,291.00 C946.93,291.00 952.00,295.67 952.00,300.66 C952.00,301.75 953.21,301.14 955.95,298.66 C963.09,292.21 967.43,290.55 977.14,290.52 C986.88,290.50 989.06,291.61 991.04,297.63 C991.97,300.44 991.85,301.65 990.33,304.74 C987.46,310.60 984.68,311.64 976.17,310.03 C969.82,308.83 968.62,308.88 964.56,310.43 C962.06,311.38 959.11,313.44 957.99,315.01 C953.50,321.32 953.00,324.89 953.00,350.66 C953.00,376.34 952.37,380.69 948.33,382.80 ZM 861.20 364.10 C867.78,366.38 870.21,366.42 877.07,364.40 C887.92,361.20 894.43,350.65 894.36,336.38 C894.33,330.19 893.88,328.45 890.90,323.02 C888.74,319.09 885.88,315.63 883.16,313.66 C879.45,310.97 877.82,310.48 871.51,310.16 C862.58,309.71 858.02,311.09 852.80,315.80 C846.06,321.89 844.50,325.97 844.50,337.50 C844.50,346.53 844.76,347.93 847.16,352.00 C850.96,358.42 855.11,362.00 861.20,364.10 ZM 1105.58 364.05 C1118.03,369.06 1131.53,362.45 1136.66,348.84 C1139.06,342.46 1138.76,330.79 1136.04,324.50 C1131.72,314.55 1124.98,310.00 1114.51,310.00 C1103.63,310.00 1097.22,313.88 1092.20,323.50 C1090.00,327.72 1089.59,329.82 1089.56,337.00 C1089.51,350.75 1094.81,359.71 1105.58,364.05 ZM 136.45 378.87 C139.17,380.59 141.94,382.00 142.60,382.00 C143.27,382.00 145.42,379.76 147.38,377.03 L 150.96 372.06 L 151.23 343.62 C151.38,327.98 151.21,314.89 150.85,314.53 C149.18,312.84 126.68,332.39 116.36,344.50 L 111.25 350.50 L 114.36 356.00 C118.10,362.63 129.63,374.57 136.45,378.87 ZM 199.01 336.25 C199.00,337.76 199.53,339.00 200.18,339.00 C202.87,339.00 214.40,330.31 221.35,323.03 C227.25,316.85 229.87,313.05 233.88,304.86 C236.67,299.16 239.23,292.85 239.57,290.83 C240.13,287.52 239.91,287.01 237.35,285.67 C230.92,282.33 227.10,275.65 226.15,266.11 L 225.50 259.50 L 220.76 266.12 C213.93,275.64 206.40,291.38 203.50,302.17 C201.32,310.25 199.04,327.62 199.01,336.25 ZM 385.64 257.69 C387.53,262.21 388.03,261.55 390.99,250.46 C395.04,235.32 393.53,218.85 386.85,205.12 C384.02,199.30 371.04,184.00 368.94,184.00 C367.01,184.00 367.14,188.42 369.42,199.60 C373.77,220.97 380.77,246.02 385.64,257.69 ZM 160.00 268.14 C160.00,281.86 160.40,293.00 160.88,293.00 C163.28,293.00 174.68,277.54 179.95,267.13 C182.15,262.79 189.00,242.86 189.00,240.81 C189.00,239.65 180.05,240.20 167.25,242.16 L 160.00 243.27 ZM 283.33 62.08 L 285.82 67.65 L 292.40 67.75 C296.01,67.81 299.23,67.43 299.55,66.93 C299.86,66.42 298.36,66.00 296.21,66.00 C291.23,66.00 288.28,63.21 289.96,60.08 C290.87,58.37 292.02,58.00 296.46,58.00 C302.94,58.00 304.38,56.82 306.48,49.77 C310.89,34.89 305.67,26.01 292.50,26.01 C282.02,26.01 277.00,31.00 277.00,41.41 C277.00,46.79 278.11,50.43 283.33,62.08 ZM 643.99 335.25 C643.99,335.66 651.17,336.00 659.94,336.00 C668.71,336.00 676.08,335.66 676.33,335.25 C676.89,334.30 661.04,297.00 660.08,297.00 C659.40,297.00 643.96,333.69 643.99,335.25 ZM 283.88 96.12 C287.16,99.40 288.42,100.00 291.98,100.00 C299.25,100.00 305.00,94.61 305.00,87.79 C305.00,84.76 302.13,80.88 301.33,82.82 C301.03,83.54 299.80,85.29 298.59,86.70 C296.96,88.59 295.82,89.08 294.24,88.58 C291.11,87.58 290.63,84.66 292.96,80.84 C295.64,76.44 295.55,76.00 291.95,76.00 C285.05,76.00 280.00,81.11 280.00,88.08 C280.00,91.57 280.62,92.85 283.88,96.12 ZM 380.59 405.93 C376.41,409.39 364.89,407.23 359.45,401.95 C355.41,398.04 354.38,395.46 356.04,393.45 C357.75,391.39 360.38,391.65 362.60,394.11 C365.89,397.75 371.94,400.27 375.85,399.64 C377.81,399.32 379.96,399.55 380.69,400.15 C382.41,401.58 382.36,404.46 380.59,405.93 ZM 333.46 283.14 C332.02,287.65 319.44,283.63 311.75,276.21 C307.51,272.12 307.39,271.75 309.57,269.57 C311.84,267.31 313.14,267.59 318.09,271.41 C320.51,273.29 324.83,275.58 327.68,276.51 C333.01,278.23 334.48,279.92 333.46,283.14 ZM 408.40 389.69 C402.33,394.14 385.74,386.17 387.39,379.60 C388.14,376.59 391.92,376.00 394.05,378.55 C396.09,381.01 398.97,382.21 404.43,382.88 C408.84,383.42 409.55,383.82 409.84,385.94 C410.06,387.45 409.50,388.89 408.40,389.69 ZM 372.02 372.47 C367.53,377.88 350.03,367.94 353.72,362.08 C355.39,359.43 357.89,359.70 361.56,362.92 C363.80,364.89 366.15,366.00 368.06,366.00 C371.73,366.00 374.14,369.92 372.02,372.47 Z" fill="rgb(49,73,98)"/>
<path d="M 374.90 252.15 C373.25,247.75 371.77,244.43 371.37,244.30 C371.04,244.19 370.33,245.42 369.59,247.30 C369.86,246.22 370.00,245.26 370.00,244.46 C370.00,239.63 371.62,242.15 374.84,251.95 C374.86,252.02 374.88,252.09 374.90,252.15 ZM 379.94 265.09 C385.86,278.59 394.12,293.22 401.14,302.14 C393.95,293.00 385.81,278.66 379.94,265.09 ZM 359.15 267.04 C355.09,273.02 352.77,277.08 351.67,281.41 C352.76,277.00 355.09,272.95 359.15,267.04 Z" fill="rgb(167,180,191)"/>
<path d="M 1199.08 381.08 C1196.64,383.51 1195.35,383.99 1191.33,383.97 C1185.58,383.93 1183.51,382.89 1181.50,379.00 C1180.22,376.53 1180.00,368.27 1180.00,323.20 C1180.00,289.53 1180.37,269.23 1181.03,267.35 C1182.36,263.54 1186.72,261.00 1191.94,261.00 C1192.22,261.00 1192.48,261.00 1192.73,261.00 C1193.90,260.99 1194.84,260.98 1195.74,261.18 C1199.79,262.07 1202.93,267.13 1221.18,295.00 C1228.57,306.27 1235.63,317.19 1236.89,319.25 C1238.14,321.31 1239.52,323.00 1239.95,323.00 C1240.73,323.00 1247.57,312.86 1265.85,284.57 C1271.16,276.37 1277.35,267.70 1279.62,265.32 C1283.38,261.37 1284.16,261.00 1288.65,261.00 C1294.70,261.00 1297.60,262.91 1298.96,267.78 C1300.25,272.45 1300.38,373.89 1299.10,377.18 C1298.60,378.46 1297.23,380.51 1296.06,381.75 C1292.25,385.76 1280.75,384.16 1278.37,379.29 C1277.89,378.30 1277.28,361.30 1277.00,341.50 L 1276.50 305.50 L 1270.61 314.50 C1251.37,343.91 1247.69,349.62 1242.93,350.73 C1241.79,351.00 1240.57,351.00 1239.07,351.00 L 1238.80 351.00 C1233.24,351.00 1230.31,347.76 1216.58,326.45 C1210.58,317.13 1204.84,308.43 1203.83,307.12 C1202.05,304.79 1202.00,305.64 1202.00,341.44 L 1202.00 378.15 ZM 1636.57 383.07 C1633.49,384.43 1628.98,385.35 1624.12,385.60 C1603.19,386.69 1586.04,373.60 1580.49,352.31 C1578.52,344.72 1578.57,329.83 1580.60,322.93 C1584.50,309.62 1593.67,298.41 1605.00,293.09 C1609.92,290.77 1611.72,290.50 1622.00,290.50 C1632.71,290.50 1633.89,290.70 1639.24,293.41 C1642.39,295.01 1645.72,297.14 1646.64,298.16 C1649.01,300.77 1649.69,300.48 1650.43,296.50 C1650.90,294.01 1651.93,292.57 1654.00,291.50 C1657.39,289.75 1663.27,289.54 1666.15,291.08 C1670.70,293.52 1671.00,296.43 1671.00,338.36 L 1671.00 377.79 L 1668.10 380.89 C1665.61,383.56 1664.50,384.00 1660.23,384.00 C1655.06,384.00 1650.00,381.28 1650.00,378.49 C1650.00,375.91 1648.01,375.89 1644.70,378.41 C1642.88,379.80 1639.22,381.90 1636.57,383.07 ZM 1373.00 383.54 C1366.93,385.72 1354.64,386.28 1349.00,384.63 C1332.76,379.87 1320.54,366.68 1317.11,350.20 C1314.50,337.73 1316.36,322.62 1321.70,312.81 C1329.97,297.61 1343.09,289.99 1360.93,290.01 C1370.29,290.02 1376.43,292.10 1382.64,297.34 C1384.37,298.81 1386.01,300.00 1386.28,300.00 C1386.55,300.00 1387.06,298.47 1387.42,296.60 C1388.23,292.25 1391.64,290.00 1397.41,290.00 C1400.70,290.00 1402.63,290.64 1404.69,292.41 L 1407.50 294.83 L 1407.50 379.17 L 1404.57 381.70 C1402.01,383.90 1400.94,384.16 1396.15,383.76 C1390.69,383.31 1389.43,382.49 1386.43,377.43 C1385.43,375.75 1385.08,375.84 1381.43,378.77 C1379.27,380.50 1375.47,382.65 1373.00,383.54 ZM 1445.23 381.49 C1443.20,383.53 1441.76,383.99 1437.61,383.97 C1432.21,383.93 1430.06,382.88 1428.16,379.32 C1427.34,377.76 1427.00,365.84 1427.00,338.02 C1427.00,294.83 1427.08,294.21 1433.12,292.11 C1434.87,291.50 1437.47,291.00 1438.90,291.00 C1442.45,291.01 1446.73,294.80 1447.71,298.80 L 1448.52 302.10 L 1452.51 298.69 C1459.56,292.67 1464.59,290.69 1474.00,290.21 C1478.82,289.97 1484.38,290.29 1486.84,290.95 C1491.81,292.30 1499.16,298.56 1501.01,303.03 C1501.69,304.66 1502.32,306.00 1502.41,306.00 C1502.51,306.00 1505.30,303.36 1508.61,300.14 C1516.28,292.68 1522.91,290.00 1533.67,290.00 C1537.85,290.00 1543.01,290.52 1545.14,291.16 C1554.00,293.82 1560.89,303.38 1563.01,316.00 C1563.68,319.98 1563.99,333.47 1563.80,350.84 L 1563.50 379.18 L 1560.69 381.59 C1556.75,384.98 1549.25,384.98 1545.31,381.59 L 1542.50 379.18 L 1542.00 349.84 C1541.50,320.78 1541.48,320.46 1538.98,316.00 C1535.95,310.59 1531.18,308.53 1523.65,309.38 C1515.19,310.34 1509.37,315.41 1507.02,323.88 C1506.46,325.87 1506.01,338.90 1506.01,352.83 L 1506.00 378.15 L 1503.08 381.08 C1500.69,383.47 1499.31,384.00 1495.51,384.00 C1492.96,384.00 1490.01,383.54 1488.96,382.98 C1484.84,380.77 1484.52,378.58 1484.00,349.00 C1483.46,318.19 1483.33,317.43 1477.60,312.08 C1473.93,308.65 1465.89,308.07 1459.72,310.80 C1449.85,315.16 1447.39,324.54 1448.37,354.00 C1449.03,373.99 1448.55,378.17 1445.23,381.49 ZM 1353.54 364.41 C1358.72,366.31 1363.50,366.34 1369.60,364.53 C1379.58,361.56 1386.50,350.91 1386.50,338.50 C1386.50,328.65 1384.54,322.82 1379.26,316.95 C1375.78,313.07 1373.64,311.66 1369.36,310.41 C1350.31,304.88 1334.32,321.93 1338.11,343.72 C1339.79,353.36 1345.96,361.63 1353.54,364.41 ZM 1617.79 364.81 C1627.43,367.37 1634.76,365.42 1641.54,358.49 C1657.32,342.36 1649.30,312.67 1628.32,309.53 C1622.52,308.65 1614.00,311.18 1609.54,315.09 C1600.96,322.63 1597.87,339.33 1602.94,350.79 C1605.69,357.01 1612.44,363.38 1617.79,364.81 ZM 1641.16 273.99 C1632.19,283.65 1631.71,284.00 1627.60,284.00 C1624.35,284.00 1622.79,283.41 1620.99,281.49 L 1618.64 278.98 L 1622.91 270.82 C1629.66,257.93 1635.07,249.92 1637.70,248.92 C1644.08,246.50 1650.35,249.08 1652.07,254.85 C1653.61,259.97 1652.69,261.57 1641.16,273.99 Z" fill="rgb(225,129,150)"/>
<path d="M 0.00 304.00 L 0.00 0.00 L 853.00 0.00 L 1706.00 0.00 L 1706.00 304.00 L 1706.00 608.00 L 853.00 608.00 L 0.00 608.00 L 0.00 304.00 ZM 296.79 588.94 C314.58,586.99 335.14,581.88 367.24,571.44 C433.34,549.94 489.80,501.52 521.24,439.37 C539.93,402.42 548.53,368.41 549.70,326.84 C550.50,298.34 548.30,278.50 541.43,252.13 C522.12,178.10 471.17,116.14 401.50,81.98 C376.24,69.59 348.07,61.59 318.71,58.46 C313.91,57.95 313.00,57.56 313.41,56.17 C316.62,45.42 317.24,40.65 316.09,35.49 C313.49,23.90 305.11,17.51 292.50,17.50 C286.51,17.50 284.70,17.95 280.00,20.61 C268.27,27.23 265.21,40.04 271.50,56.17 C272.05,57.57 271.22,57.94 266.33,58.49 C253.30,59.94 236.45,63.20 225.00,66.50 C143.89,89.85 78.54,151.19 50.22,230.56 C39.31,261.13 35.54,283.99 35.55,319.50 C35.56,351.77 38.13,369.35 47.13,398.50 C66.83,462.38 114.00,519.66 174.00,552.54 C179.77,555.71 188.17,560.68 192.66,563.59 C211.32,575.71 225.77,581.93 244.65,585.97 C262.22,589.73 280.18,590.76 296.79,588.94 ZM 881.30 384.51 C893.98,381.21 905.73,372.32 910.96,362.09 C919.31,345.72 917.76,321.98 907.43,307.91 C898.69,296.00 886.07,290.00 869.77,290.00 C854.62,290.00 843.61,294.36 834.69,303.90 C826.23,312.94 822.03,324.09 822.01,337.54 C821.99,352.00 825.67,361.65 834.88,371.31 C846.55,383.57 864.90,388.78 881.30,384.51 ZM 1121.74 384.48 C1124.55,383.65 1129.18,381.40 1132.02,379.49 C1137.07,376.09 1139.00,375.79 1139.00,378.40 C1139.00,380.38 1142.37,382.99 1146.33,384.08 C1149.04,384.83 1150.77,384.70 1153.49,383.57 C1159.84,380.91 1160.00,379.80 1159.99,337.78 C1159.99,315.21 1159.58,299.03 1158.96,296.78 C1157.61,291.93 1154.70,290.00 1148.73,290.00 C1144.94,290.00 1143.38,290.53 1141.45,292.45 C1140.10,293.80 1139.00,295.75 1139.00,296.79 C1139.00,300.01 1137.96,299.96 1133.46,296.52 C1126.65,291.32 1120.47,289.71 1109.12,290.16 C1100.92,290.49 1098.52,291.00 1093.47,293.47 C1065.97,306.92 1058.55,345.94 1078.75,370.83 C1088.58,382.95 1107.11,388.83 1121.74,384.48 ZM 1373.00 383.54 C1375.47,382.65 1379.27,380.50 1381.43,378.77 C1385.08,375.84 1385.43,375.75 1386.43,377.43 C1389.43,382.49 1390.69,383.31 1396.15,383.76 C1400.94,384.16 1402.01,383.90 1404.57,381.70 L 1407.50 379.17 L 1407.50 337.00 L 1407.50 294.83 L 1404.69 292.41 C1402.63,290.64 1400.70,290.00 1397.41,290.00 C1391.64,290.00 1388.23,292.25 1387.42,296.60 C1387.06,298.47 1386.55,300.00 1386.28,300.00 C1386.01,300.00 1384.37,298.81 1382.64,297.34 C1376.43,292.10 1370.29,290.02 1360.93,290.01 C1343.09,289.99 1329.97,297.61 1321.70,312.81 C1316.36,322.62 1314.50,337.73 1317.11,350.20 C1320.54,366.68 1332.76,379.87 1349.00,384.63 C1354.64,386.28 1366.93,385.72 1373.00,383.54 ZM 1636.57 383.07 C1639.22,381.90 1642.88,379.80 1644.70,378.41 C1648.01,375.89 1650.00,375.91 1650.00,378.49 C1650.00,381.28 1655.06,384.00 1660.23,384.00 C1664.50,384.00 1665.61,383.56 1668.10,380.89 L 1671.00 377.79 L 1671.00 338.36 C1671.00,296.43 1670.70,293.52 1666.15,291.08 C1663.27,289.54 1657.39,289.75 1654.00,291.50 C1651.93,292.57 1650.90,294.01 1650.43,296.50 C1649.69,300.48 1649.01,300.77 1646.64,298.16 C1645.72,297.14 1642.39,295.01 1639.24,293.41 C1633.89,290.70 1632.71,290.50 1622.00,290.50 C1611.72,290.50 1609.92,290.77 1605.00,293.09 C1593.67,298.41 1584.50,309.62 1580.60,322.93 C1578.57,329.83 1578.52,344.72 1580.49,352.31 C1586.04,373.60 1603.19,386.69 1624.12,385.60 C1628.98,385.35 1633.49,384.43 1636.57,383.07 ZM 622.33 382.57 C623.52,381.23 626.57,375.05 629.10,368.82 L 633.70 357.50 L 660.19 357.23 L 686.68 356.97 L 691.59 369.15 C695.53,378.92 697.09,381.69 699.50,383.16 C703.15,385.39 707.13,385.50 711.02,383.49 C714.52,381.68 716.00,379.19 716.00,375.10 C716.00,372.53 709.45,355.66 701.00,336.50 C699.79,333.75 696.19,325.20 693.01,317.50 C678.28,281.91 671.64,266.39 670.27,264.29 C667.07,259.40 655.89,259.15 651.61,263.88 C649.99,265.66 641.95,284.04 629.01,315.50 C623.99,327.69 618.40,341.13 607.51,367.14 C603.99,375.55 604.51,380.12 609.30,383.04 C613.87,385.83 619.60,385.62 622.33,382.57 ZM 742.40 383.61 C748.89,380.89 749.00,380.37 749.00,351.93 C749.00,324.84 749.37,322.07 753.77,316.14 C756.96,311.85 761.67,309.91 769.44,309.69 C776.57,309.50 779.95,311.17 782.72,316.26 C784.25,319.07 784.55,323.32 784.99,348.55 C785.56,381.16 785.68,381.69 792.69,383.79 C795.46,384.62 797.65,384.66 800.29,383.93 C806.76,382.14 807.00,380.90 807.00,348.69 C807.00,317.50 806.43,312.39 801.99,303.50 C796.75,293.01 789.81,289.57 775.05,290.16 C768.03,290.44 765.48,291.02 760.79,293.39 C757.65,294.99 754.08,297.35 752.87,298.64 C751.65,299.94 750.28,301.00 749.83,301.00 C749.37,301.00 749.00,291.74 749.00,280.42 L 749.00 259.85 L 746.08 256.92 C741.21,252.05 731.53,253.15 728.55,258.91 C727.20,261.51 727.00,269.42 727.00,319.00 C727.00,382.11 726.87,380.73 733.31,383.54 C737.37,385.30 738.33,385.31 742.40,383.61 ZM 948.33 382.80 C952.37,380.69 953.00,376.34 953.00,350.66 C953.00,324.89 953.50,321.32 957.99,315.01 C959.11,313.44 962.06,311.38 964.56,310.43 C968.62,308.88 969.82,308.83 976.17,310.03 C984.68,311.64 987.46,310.60 990.33,304.74 C991.85,301.65 991.97,300.44 991.04,297.63 C989.06,291.61 986.88,290.50 977.14,290.52 C967.43,290.55 963.09,292.21 955.95,298.66 C953.21,301.14 952.00,301.75 952.00,300.66 C952.00,295.67 946.93,291.00 941.50,291.00 C938.13,291.00 933.34,293.50 932.03,295.94 C931.37,297.17 931.00,312.30 931.00,337.71 C931.00,372.90 931.19,377.83 932.63,379.88 C935.85,384.48 942.70,385.75 948.33,382.80 ZM 1018.57 383.54 C1024.47,381.07 1025.00,378.43 1025.01,351.28 C1025.01,337.45 1025.46,325.83 1026.09,323.50 C1027.69,317.56 1031.58,312.49 1036.11,310.45 C1039.72,308.82 1040.90,308.76 1047.41,309.85 C1058.51,311.72 1063.00,308.94 1063.00,300.20 C1063.00,296.68 1062.42,295.26 1059.95,292.80 C1056.96,289.81 1056.77,289.76 1048.70,290.20 C1039.36,290.72 1033.81,292.99 1027.75,298.81 C1024.88,301.56 1024.00,302.00 1024.00,300.65 C1024.00,297.47 1021.14,293.30 1018.10,292.04 C1013.81,290.27 1007.49,291.56 1005.00,294.72 C1003.07,297.18 1003.00,298.76 1003.00,337.41 C1003.00,381.74 1002.86,380.73 1009.38,383.56 C1013.39,385.31 1014.33,385.31 1018.57,383.54 ZM 1199.08 381.08 L 1202.00 378.15 L 1202.00 341.44 C1202.00,305.64 1202.05,304.79 1203.83,307.12 C1204.84,308.43 1210.58,317.13 1216.58,326.45 C1230.31,347.76 1233.24,351.00 1238.80,351.00 C1246.83,351.00 1246.46,351.42 1270.61,314.50 L 1276.50 305.50 L 1277.00 341.50 C1277.28,361.30 1277.89,378.30 1278.37,379.29 C1280.75,384.16 1292.25,385.76 1296.06,381.75 C1297.23,380.51 1298.60,378.46 1299.10,377.18 C1300.38,373.89 1300.25,272.45 1298.96,267.78 C1297.60,262.91 1294.70,261.00 1288.65,261.00 C1284.16,261.00 1283.38,261.37 1279.62,265.32 C1277.35,267.70 1271.16,276.37 1265.85,284.57 C1247.57,312.86 1240.73,323.00 1239.95,323.00 C1239.52,323.00 1238.14,321.31 1236.89,319.25 C1235.63,317.19 1228.57,306.27 1221.18,295.00 C1198.00,259.61 1199.20,261.00 1191.94,261.00 C1186.72,261.00 1182.36,263.54 1181.03,267.35 C1180.37,269.23 1180.00,289.53 1180.00,323.20 C1180.00,368.27 1180.22,376.53 1181.50,379.00 C1183.51,382.89 1185.58,383.93 1191.33,383.97 C1195.35,383.99 1196.64,383.51 1199.08,381.08 ZM 1445.23 381.49 C1448.55,378.17 1449.03,373.99 1448.37,354.00 C1447.39,324.54 1449.85,315.16 1459.72,310.80 C1465.89,308.07 1473.93,308.65 1477.60,312.08 C1483.33,317.43 1483.46,318.19 1484.00,349.00 C1484.52,378.58 1484.84,380.77 1488.96,382.98 C1490.01,383.54 1492.96,384.00 1495.51,384.00 C1499.31,384.00 1500.69,383.47 1503.08,381.08 L 1506.00 378.15 L 1506.01 352.83 C1506.01,338.90 1506.46,325.87 1507.02,323.88 C1509.37,315.41 1515.19,310.34 1523.65,309.38 C1531.18,308.53 1535.95,310.59 1538.98,316.00 C1541.48,320.46 1541.50,320.78 1542.00,349.84 L 1542.50 379.18 L 1545.31 381.59 C1549.25,384.98 1556.75,384.98 1560.69,381.59 L 1563.50 379.18 L 1563.80 350.84 C1563.99,333.47 1563.68,319.98 1563.01,316.00 C1560.89,303.38 1554.00,293.82 1545.14,291.16 C1543.01,290.52 1537.85,290.00 1533.67,290.00 C1522.91,290.00 1516.28,292.68 1508.61,300.14 C1505.30,303.36 1502.51,306.00 1502.41,306.00 C1502.32,306.00 1501.69,304.66 1501.01,303.03 C1499.16,298.56 1491.81,292.30 1486.84,290.95 C1484.38,290.29 1478.82,289.97 1474.00,290.21 C1464.59,290.69 1459.56,292.67 1452.51,298.69 L 1448.52 302.10 L 1447.71 298.80 C1446.73,294.80 1442.45,291.01 1438.90,291.00 C1437.47,291.00 1434.87,291.50 1433.12,292.11 C1427.08,294.21 1427.00,294.83 1427.00,338.02 C1427.00,365.84 1427.34,377.76 1428.16,379.32 C1430.06,382.88 1432.21,383.93 1437.61,383.97 C1441.76,383.99 1443.20,383.53 1445.23,381.49 ZM 1641.16 273.99 C1652.69,261.57 1653.61,259.97 1652.07,254.85 C1650.35,249.08 1644.08,246.50 1637.70,248.92 C1635.07,249.92 1629.66,257.93 1622.91,270.82 L 1618.64 278.98 L 1620.99 281.49 C1622.79,283.41 1624.35,284.00 1627.60,284.00 C1631.71,284.00 1632.19,283.65 1641.16,273.99 ZM 251.50 579.02 C221.48,573.56 195.26,558.94 174.89,536.31 C164.80,525.10 153.04,506.10 146.62,490.65 C144.58,485.74 144.03,485.53 163.28,497.13 C182.63,508.79 205.75,520.82 220.55,526.94 L 232.11 531.72 L 238.76 540.11 C242.42,544.72 252.29,555.50 260.70,564.06 C269.12,572.62 276.00,579.94 276.00,580.31 C276.00,581.60 261.51,580.84 251.50,579.02 ZM 270.88 563.23 C251.60,543.52 245.44,536.38 248.57,537.35 C259.85,540.83 284.39,544.00 299.99,543.99 C327.70,543.97 351.03,538.64 374.75,526.91 C388.02,520.35 387.42,521.05 388.43,510.90 C389.22,502.89 391.27,497.82 397.87,487.55 C401.06,482.57 405.21,475.69 407.07,472.25 C408.94,468.81 410.77,466.00 411.15,466.00 C411.77,466.00 408.24,478.62 405.91,484.74 C404.34,488.88 404.86,491.86 407.44,493.55 C409.68,495.02 410.17,495.01 413.46,493.45 C423.82,488.54 437.68,464.41 440.58,446.25 C440.95,443.91 441.72,442.00 442.28,442.00 C444.20,442.00 442.27,463.71 439.44,474.00 C433.71,494.83 424.49,509.78 406.09,528.08 C388.93,545.14 369.13,558.28 345.50,568.27 C330.15,574.76 304.41,581.00 293.00,581.00 L 288.27 581.00 L 270.88 563.23 ZM 392.04 552.33 C392.07,551.88 394.20,549.86 396.79,547.86 C413.17,535.20 431.07,514.23 438.91,498.50 C452.31,471.63 454.77,441.92 445.57,417.73 C444.16,414.00 443.00,410.26 443.00,409.41 C443.00,408.56 444.29,405.98 445.86,403.68 C459.63,383.58 461.35,360.31 450.71,338.09 C446.08,328.42 434.64,317.15 424.61,312.39 C419.57,310.00 415.72,307.34 413.39,304.63 C408.66,299.12 397.71,282.65 394.93,276.85 L 392.69 272.19 L 396.34 261.21 C404.20,237.57 403.69,221.78 394.45,202.41 C389.66,192.38 380.96,182.12 369.51,173.01 C365.44,169.77 362.05,165.98 360.05,162.43 C356.24,155.68 343.91,142.60 335.05,135.92 C326.11,129.18 310.45,121.58 299.00,118.43 C286.31,114.94 263.09,113.98 249.36,116.37 C218.33,121.77 193.55,137.02 174.60,162.35 C160.51,181.21 153.28,201.63 151.49,227.67 L 150.80 237.83 L 145.03 239.99 C133.25,244.39 118.62,256.04 110.54,267.43 C100.45,281.66 96.11,294.52 95.29,312.62 C94.71,325.35 96.12,335.06 99.99,345.00 L 101.74 349.50 L 96.51 358.74 C87.62,374.46 84.30,388.18 85.33,405.00 C86.75,428.51 97.85,450.15 116.75,466.29 C121.08,469.99 126.68,474.32 129.20,475.91 C133.28,478.50 134.00,479.54 135.94,485.65 C138.88,494.92 148.79,514.45 155.86,524.93 C164.01,537.00 163.89,536.73 159.62,534.21 C155.73,531.91 142.12,521.83 136.00,516.72 C127.29,509.44 108.98,490.48 100.54,480.00 C69.32,441.24 51.28,398.62 44.89,348.50 C43.05,334.09 43.33,300.23 45.40,285.50 C55.27,215.57 90.84,155.45 146.78,114.19 C183.22,87.32 224.74,71.16 269.58,66.42 C275.64,65.78 275.67,65.79 276.91,68.79 C278.03,71.48 277.90,72.21 275.68,75.65 C269.30,85.58 270.02,94.11 277.90,101.99 C285.24,109.34 293.77,110.71 302.95,106.02 C307.37,103.77 309.49,101.46 311.46,96.75 C314.29,89.98 313.33,81.66 308.95,75.00 C307.00,72.03 308.08,66.00 310.57,66.00 C315.48,66.00 333.15,68.49 343.13,70.58 C409.88,84.60 471.32,129.55 506.84,190.35 C558.29,278.42 552.59,387.60 492.22,470.50 C478.80,488.94 458.00,510.36 441.00,523.28 C426.60,534.21 391.92,554.80 392.04,552.33 ZM 281.23 534.93 C276.69,534.49 268.41,533.20 262.85,532.06 C257.28,530.93 252.56,530.00 252.36,530.00 C251.45,530.00 252.15,517.67 253.49,510.02 C260.17,472.11 287.46,434.16 322.50,414.10 C327.45,411.26 333.23,408.42 335.35,407.78 C338.81,406.74 339.32,406.82 340.29,408.55 C342.63,412.74 350.16,419.73 356.17,423.30 C378.40,436.49 406.38,435.71 427.82,421.32 C431.49,418.85 434.80,416.64 435.16,416.41 C435.52,416.18 436.75,418.76 437.89,422.13 L 439.96 428.26 L 437.55 431.13 C434.79,434.41 434.82,434.32 431.97,447.00 C429.85,456.40 423.94,470.12 419.90,475.00 L 417.84 477.50 L 418.49 474.00 C421.20,459.66 419.70,455.00 412.38,455.00 C408.12,455.00 405.20,457.70 401.44,465.12 C399.94,468.08 396.02,474.77 392.71,480.00 C383.97,493.85 381.20,500.20 380.40,508.29 L 379.72 515.25 L 368.61 520.57 C341.60,533.51 313.80,538.08 281.23,534.93 ZM 236.58 523.49 C229.86,516.25 217.53,494.05 213.22,481.47 C210.13,472.44 207.44,461.15 204.54,445.00 C198.19,409.66 190.12,393.72 174.72,386.02 C169.65,383.48 167.51,383.00 161.34,383.00 C157.30,383.00 154.00,382.60 154.00,382.12 C154.00,381.64 156.96,378.04 160.59,374.13 C166.86,367.35 178.47,359.22 188.28,354.73 C192.58,352.76 192.25,352.34 194.00,362.00 C197.42,380.85 210.67,404.04 226.43,418.79 C237.92,429.53 263.65,444.94 270.19,444.99 C273.46,445.01 272.97,446.92 267.61,454.93 C260.15,466.07 253.78,478.76 250.09,489.84 C246.92,499.34 244.00,513.61 244.00,519.55 C244.00,526.44 240.86,528.11 236.58,523.49 ZM 211.50 514.12 C191.87,504.78 151.55,481.47 141.20,473.47 C141.04,473.35 140.03,468.87 138.95,463.52 C135.18,444.78 135.37,427.52 139.51,411.61 C143.48,396.39 148.89,391.45 161.50,391.56 C169.65,391.64 173.26,393.20 179.06,399.18 C187.33,407.70 191.84,420.64 197.91,453.29 C202.61,478.56 209.56,498.02 219.32,513.28 C221.33,516.43 222.64,518.97 222.24,518.94 C221.83,518.90 217.00,516.73 211.50,514.12 ZM 125.38 463.20 C97.92,441.47 86.90,407.17 97.43,376.20 C100.05,368.50 104.67,359.00 105.80,359.00 C106.22,359.00 107.41,360.42 108.43,362.15 C111.50,367.34 124.05,379.94 131.00,384.80 C134.57,387.30 137.85,389.64 138.27,389.99 C138.69,390.35 137.74,393.53 136.14,397.07 C128.57,413.90 126.20,435.16 129.43,457.50 C130.15,462.45 130.63,466.63 130.50,466.78 C130.37,466.94 128.07,465.33 125.38,463.20 ZM 271.42 437.10 C263.30,434.17 249.05,426.43 241.93,421.06 C238.31,418.34 232.09,412.67 228.11,408.48 C214.77,394.44 207.13,380.20 202.16,360.13 L 199.59 349.75 L 201.73 348.13 C202.91,347.23 206.65,344.93 210.05,343.02 C221.49,336.56 233.59,323.80 240.47,310.92 L 243.78 304.72 L 245.48 310.58 C247.61,317.91 250.06,322.78 255.62,330.80 C258.03,334.26 260.00,337.50 260.00,337.99 C260.00,338.48 258.23,341.72 256.07,345.19 C249.57,355.63 247.61,362.69 247.55,375.83 C247.51,385.92 247.71,387.31 249.44,388.58 C251.92,390.39 252.49,390.36 254.52,388.34 C255.66,387.20 256.06,385.47 255.81,382.84 C255.25,376.97 257.36,377.89 267.06,387.75 C276.39,397.24 281.60,406.12 284.48,417.46 C286.84,426.72 286.50,430.59 282.92,435.11 C279.43,439.50 278.53,439.66 271.42,437.10 ZM 381.99 424.08 C370.36,422.47 361.01,418.06 352.97,410.39 C341.47,399.42 338.04,385.79 343.52,372.90 C345.02,369.38 348.00,361.42 350.13,355.21 C352.26,348.99 355.20,341.57 356.65,338.71 C361.56,329.02 374.84,318.49 384.64,316.52 L 387.78 315.89 L 385.32 320.69 C379.14,332.72 387.12,347.00 400.02,347.00 C404.72,347.00 410.55,343.99 411.47,341.09 C412.90,336.57 408.69,334.40 404.56,337.53 C400.04,340.95 392.97,337.73 391.42,331.54 C390.44,327.64 393.06,321.88 397.04,319.17 C400.13,317.06 401.36,316.85 408.54,317.22 C418.38,317.71 424.23,320.27 431.90,327.45 C438.06,333.21 442.97,340.39 446.07,348.15 C449.16,355.88 449.92,373.69 447.48,381.13 C444.10,391.43 439.10,399.94 432.67,406.31 C418.78,420.08 400.19,426.60 381.99,424.08 ZM 380.59 405.93 C382.36,404.46 382.41,401.58 380.69,400.15 C379.96,399.55 377.81,399.32 375.85,399.64 C371.94,400.27 365.89,397.75 362.60,394.11 C360.38,391.65 357.75,391.39 356.04,393.45 C354.38,395.46 355.41,398.04 359.45,401.95 C364.89,407.23 376.41,409.39 380.59,405.93 ZM 408.40 389.69 C409.50,388.89 410.06,387.45 409.84,385.94 C409.55,383.82 408.84,383.42 404.43,382.88 C398.97,382.21 396.09,381.01 394.05,378.55 C391.92,376.00 388.14,376.59 387.39,379.60 C385.74,386.17 402.33,394.14 408.40,389.69 ZM 372.02 372.47 C374.14,369.92 371.73,366.00 368.06,366.00 C366.15,366.00 363.80,364.89 361.56,362.92 C357.89,359.70 355.39,359.43 353.72,362.08 C350.03,367.94 367.53,377.88 372.02,372.47 ZM 292.97 418.34 C290.18,404.93 284.83,394.35 275.86,384.53 C271.45,379.71 261.59,371.55 257.21,369.10 C255.87,368.35 255.84,367.62 257.00,363.37 C258.52,357.73 261.95,350.52 264.71,347.11 L 266.63 344.73 L 273.07 349.51 C281.00,355.40 290.70,359.94 296.93,360.68 C303.45,361.45 307.32,359.27 310.47,353.05 C311.84,350.35 314.85,346.65 317.15,344.82 C325.94,337.86 328.70,334.55 330.99,328.25 L 333.27 322.00 L 339.50 322.00 C350.72,322.00 354.09,316.65 352.12,301.98 C349.55,282.91 350.28,279.80 360.96,264.39 C364.24,259.66 367.56,253.43 368.63,250.03 C369.66,246.72 370.89,244.15 371.37,244.30 C371.86,244.46 373.92,249.29 375.96,255.04 C381.64,271.06 392.13,290.69 401.14,302.14 C402.71,304.15 404.00,306.06 404.00,306.39 C404.00,306.73 400.49,307.00 396.21,307.00 C381.41,307.00 368.51,312.26 358.51,322.37 C351.32,329.65 346.79,337.83 343.36,349.76 C341.98,354.56 339.28,362.00 337.36,366.27 C332.25,377.64 331.22,384.38 333.40,392.20 C334.40,395.80 334.73,398.59 334.19,398.77 C333.67,398.94 329.29,401.12 324.46,403.60 C314.81,408.57 309.63,411.90 300.31,419.13 L 294.13 423.93 L 292.97 418.34 ZM 136.45 378.87 C129.63,374.57 118.10,362.63 114.36,356.00 L 111.25 350.50 L 116.36 344.50 C126.68,332.39 149.18,312.84 150.85,314.53 C151.21,314.89 151.38,327.98 151.23,343.62 L 150.96 372.06 L 147.38 377.03 C145.42,379.76 143.27,382.00 142.60,382.00 C141.94,382.00 139.17,380.59 136.45,378.87 ZM 160.00 334.60 L 160.00 306.29 L 167.27 298.89 C180.82,285.12 191.05,266.87 195.38,248.78 L 197.47 240.00 L 216.29 240.00 L 235.12 240.00 L 228.85 244.75 C221.29,250.49 211.98,262.57 205.59,274.92 C195.91,293.67 192.36,307.37 191.31,330.00 L 190.63 344.50 L 181.77 348.83 C176.89,351.21 170.00,355.35 166.45,358.04 L 160.00 362.92 L 160.00 334.60 ZM 288.19 348.97 C266.87,338.31 251.90,315.58 249.36,290.04 C248.51,281.40 247.54,279.00 244.93,279.00 C241.59,279.00 237.21,275.91 235.79,272.56 C233.96,268.22 234.27,257.22 236.33,253.28 C239.04,248.12 241.92,246.00 246.25,246.00 C251.42,246.00 253.61,247.32 255.91,251.82 C258.95,257.79 261.03,258.40 275.90,257.69 C297.90,256.64 319.58,249.69 333.84,239.12 C343.46,231.98 353.15,221.42 357.82,212.95 L 361.76 205.82 L 362.88 212.24 C363.50,215.77 363.99,222.68 363.99,227.58 C363.97,241.71 361.17,249.87 351.55,263.87 C342.63,276.84 342.63,276.84 343.43,296.25 C343.98,309.70 343.86,313.04 342.81,313.18 C342.09,313.28 338.65,313.39 335.17,313.43 C327.83,313.51 326.93,314.29 324.50,322.64 L 322.95 327.97 L 317.84 326.03 C315.02,324.96 311.77,323.23 310.61,322.19 C307.28,319.20 306.18,318.83 304.02,319.99 C299.56,322.38 303.65,328.73 312.09,332.54 L 315.96 334.28 L 311.51 338.20 C309.07,340.35 305.82,344.45 304.28,347.31 C300.66,354.07 298.77,354.27 288.19,348.97 ZM 333.46 283.14 C334.48,279.92 333.01,278.23 327.68,276.51 C324.83,275.58 320.51,273.29 318.09,271.41 C313.14,267.59 311.84,267.31 309.57,269.57 C307.39,271.75 307.51,272.12 311.75,276.21 C319.44,283.63 332.02,287.65 333.46,283.14 ZM 106.54 339.25 C106.17,338.29 105.22,334.43 104.43,330.68 C98.58,302.88 110.73,272.39 134.37,255.56 C140.76,251.02 149.64,246.30 150.39,247.06 C150.64,247.30 150.98,259.84 151.17,274.93 L 151.50 302.36 L 141.50 309.89 C136.00,314.03 126.11,322.72 119.51,329.21 C112.92,335.69 107.46,341.00 107.37,341.00 C107.28,341.00 106.91,340.21 106.54,339.25 ZM 199.01 336.25 C199.04,327.62 201.32,310.25 203.50,302.17 C206.40,291.38 213.93,275.64 220.76,266.12 L 225.50 259.50 L 226.15 266.11 C227.10,275.65 230.92,282.33 237.35,285.67 C239.91,287.01 240.13,287.52 239.57,290.83 C239.23,292.85 236.67,299.16 233.88,304.86 C229.87,313.05 227.25,316.85 221.35,323.03 C214.40,330.31 202.87,339.00 200.18,339.00 C199.53,339.00 199.00,337.76 199.01,336.25 ZM 160.00 268.14 L 160.00 243.27 L 167.25 242.16 C180.05,240.20 189.00,239.65 189.00,240.81 C189.00,242.86 182.15,262.79 179.95,267.13 C174.68,277.54 163.28,293.00 160.88,293.00 C160.40,293.00 160.00,281.86 160.00,268.14 ZM 385.64 257.69 C380.77,246.02 373.77,220.97 369.42,199.60 C367.14,188.42 367.01,184.00 368.94,184.00 C371.04,184.00 384.02,199.30 386.85,205.12 C393.53,218.85 395.04,235.32 390.99,250.46 C388.03,261.55 387.53,262.21 385.64,257.69 ZM 260.61 244.49 C258.47,241.90 255.32,239.19 253.61,238.47 C251.50,237.57 250.98,236.99 252.00,236.67 C252.82,236.40 257.33,234.96 262.00,233.47 C292.09,223.86 316.73,202.29 332.18,172.03 C335.04,166.43 337.93,162.00 338.72,162.00 C341.04,162.00 348.45,166.75 353.54,171.49 L 358.28 175.90 L 357.73 184.70 C357.06,195.33 354.60,202.70 348.70,211.73 C338.04,228.06 320.01,240.64 299.50,246.09 C294.03,247.55 287.24,248.37 278.00,248.71 L 264.50 249.20 L 260.61 244.49 ZM 160.00 227.97 C160.00,218.90 163.23,202.93 167.10,192.90 C179.35,161.13 208.45,135.11 241.52,126.36 C250.44,124.00 253.35,123.71 269.00,123.68 C284.95,123.64 287.37,123.87 296.35,126.32 C306.56,129.10 319.08,134.85 326.89,140.33 C329.37,142.07 331.82,143.79 332.34,144.14 C332.85,144.50 332.99,145.89 332.65,147.25 L 332.03 149.71 L 323.77 147.32 C303.36,141.41 285.22,141.83 265.00,148.68 C226.89,161.59 203.05,186.27 192.93,223.25 L 190.54 232.00 L 184.84 232.00 C179.27,232.00 165.23,233.59 161.75,234.62 C160.20,235.08 160.00,234.32 160.00,227.97 ZM 200.00 230.25 C200.00,223.13 209.29,201.91 216.84,191.75 C222.23,184.51 233.32,174.05 240.45,169.49 C249.04,163.99 263.27,157.48 272.50,154.81 C279.38,152.83 282.75,152.50 296.50,152.51 C310.28,152.51 313.64,152.84 320.75,154.87 C326.09,156.39 329.00,157.72 329.00,158.63 C329.00,160.99 322.13,173.97 316.14,182.95 C309.67,192.64 296.63,206.06 288.24,211.64 C267.27,225.60 243.98,232.00 214.12,232.00 C201.33,232.00 200.00,231.83 200.00,230.25 ZM 283.88 96.12 C280.62,92.85 280.00,91.57 280.00,88.08 C280.00,81.11 285.05,76.00 291.95,76.00 C295.55,76.00 295.64,76.44 292.96,80.84 C290.63,84.66 291.11,87.58 294.24,88.58 C295.82,89.08 296.96,88.59 298.59,86.70 C299.80,85.29 301.03,83.54 301.33,82.82 C302.13,80.88 305.00,84.76 305.00,87.79 C305.00,94.61 299.25,100.00 291.98,100.00 C288.42,100.00 287.16,99.40 283.88,96.12 ZM 283.33 62.08 C278.11,50.43 277.00,46.79 277.00,41.41 C277.00,31.00 282.02,26.01 292.50,26.01 C305.67,26.01 310.89,34.89 306.48,49.77 C304.38,56.82 302.94,58.00 296.46,58.00 C292.02,58.00 290.87,58.37 289.96,60.08 C288.28,63.21 291.23,66.00 296.21,66.00 C298.36,66.00 299.86,66.42 299.55,66.93 C299.23,67.43 296.01,67.81 292.40,67.75 L 285.82 67.65 L 283.33 62.08 ZM 861.20 364.10 C855.11,362.00 850.96,358.42 847.16,352.00 C844.76,347.93 844.50,346.53 844.50,337.50 C844.50,325.97 846.06,321.89 852.80,315.80 C858.02,311.09 862.58,309.71 871.51,310.16 C877.82,310.48 879.45,310.97 883.16,313.66 C885.88,315.63 888.74,319.09 890.90,323.02 C893.88,328.45 894.33,330.19 894.36,336.38 C894.43,350.65 887.92,361.20 877.07,364.40 C870.21,366.42 867.78,366.38 861.20,364.10 ZM 1105.58 364.05 C1094.81,359.71 1089.51,350.75 1089.56,337.00 C1089.59,329.82 1090.00,327.72 1092.20,323.50 C1097.22,313.88 1103.63,310.00 1114.51,310.00 C1124.98,310.00 1131.72,314.55 1136.04,324.50 C1138.76,330.79 1139.06,342.46 1136.66,348.84 C1131.53,362.45 1118.03,369.06 1105.58,364.05 ZM 1353.54 364.41 C1345.96,361.63 1339.79,353.36 1338.11,343.72 C1334.32,321.93 1350.31,304.88 1369.36,310.41 C1373.64,311.66 1375.78,313.07 1379.26,316.95 C1384.54,322.82 1386.50,328.65 1386.50,338.50 C1386.50,350.91 1379.58,361.56 1369.60,364.53 C1363.50,366.34 1358.72,366.31 1353.54,364.41 ZM 1617.79 364.81 C1612.44,363.38 1605.69,357.01 1602.94,350.79 C1597.87,339.33 1600.96,322.63 1609.54,315.09 C1614.00,311.18 1622.52,308.65 1628.32,309.53 C1649.30,312.67 1657.32,342.36 1641.54,358.49 C1634.76,365.42 1627.43,367.37 1617.79,364.81 ZM 643.99 335.25 C643.96,333.69 659.40,297.00 660.08,297.00 C661.04,297.00 676.89,334.30 676.33,335.25 C676.08,335.66 668.71,336.00 659.94,336.00 C651.17,336.00 643.99,335.66 643.99,335.25 Z" fill="rgb(254,254,254)"/>
</g>
</svg>